<svg width="58" height="58" viewBox="0 0 58 58" fill="none" xmlns="http://www.w3.org/2000/svg">
<g clip-path="url(#clip0_1542_2873)">
<path fill-rule="evenodd" clip-rule="evenodd" d="M17.8044 25.993V57.4564H58.0001V0.54364H17.8044V25.993Z" fill="#BCCCDC"/>
<path d="M28.0316 52.0879C27.6579 52.0879 27.3521 51.7821 27.3521 51.4083C27.3521 51.0346 27.6579 50.7288 28.0316 50.7288H50.4909C50.8986 50.7288 51.2044 51.0346 51.2044 51.4083C51.2044 51.7821 50.8986 52.0879 50.4909 52.0879H28.0316Z" fill="#4D575F"/>
<path d="M28.0316 46.4815C27.6579 46.4815 27.3521 46.1757 27.3521 45.802C27.3521 45.4282 27.6579 45.1224 28.0316 45.1224H50.4909C50.8986 45.1224 51.2044 45.4282 51.2044 45.802C51.2044 46.1757 50.8986 46.4815 50.4909 46.4815H28.0316Z" fill="#4D575F"/>
<path d="M28.0316 40.8752C27.6579 40.8752 27.3521 40.5694 27.3521 40.1957C27.3521 39.8219 27.6579 39.5161 28.0316 39.5161H50.4909C50.8986 39.5161 51.2044 39.8219 51.2044 40.1957C51.2044 40.5694 50.8986 40.8752 50.4909 40.8752H28.0316Z" fill="#4D575F"/>
<path d="M29.4247 35.2689C29.0509 35.2689 28.7451 34.9631 28.7451 34.5893C28.7451 34.2156 29.0509 33.9098 29.4247 33.9098H50.4909C50.8986 33.9098 51.2044 34.2156 51.2044 34.5893C51.2044 34.9631 50.8986 35.2689 50.4909 35.2689H29.4247Z" fill="#4D575F"/>
<path d="M36.6959 29.6626C36.3222 29.6626 36.0164 29.3568 36.0164 28.983C36.0164 28.6093 36.3222 28.3035 36.6959 28.3035H50.4909C50.8986 28.3035 51.2044 28.6093 51.2044 28.983C51.2044 29.3568 50.8986 29.6626 50.4909 29.6626H36.6959Z" fill="#4D575F"/>
<path d="M38.8026 24.0562C38.4288 24.0562 38.123 23.7504 38.123 23.3767C38.123 23.0029 38.4288 22.6971 38.8026 22.6971H50.4909C50.8987 22.6971 51.2045 23.0029 51.2045 23.3767C51.2045 23.7504 50.8987 24.0562 50.4909 24.0562H38.8026Z" fill="#4D575F"/>
<path d="M33.7399 18.4839C33.3661 18.4839 33.0603 18.1781 33.0603 17.7703C33.0603 17.3966 33.3661 17.0908 33.7399 17.0908H50.4909C50.8986 17.0908 51.2044 17.3966 51.2044 17.7703C51.2044 18.1781 50.8986 18.4839 50.4909 18.4839H33.7399Z" fill="#4D575F"/>
<path d="M28.0316 12.8776C27.6579 12.8776 27.3521 12.5718 27.3521 12.164C27.3521 11.7903 27.6579 11.4845 28.0316 11.4845H50.4909C50.8986 11.4845 51.2044 11.7903 51.2044 12.164C51.2044 12.5718 50.8986 12.8776 50.4909 12.8776H28.0316Z" fill="#4D575F"/>
<path d="M28.0316 7.27123C27.6579 7.27123 27.3521 6.96543 27.3521 6.59168C27.3521 6.18394 27.6579 5.87814 28.0316 5.87814H50.4909C50.8986 5.87814 51.2044 6.18394 51.2044 6.59168C51.2044 6.96543 50.8986 7.27123 50.4909 7.27123H28.0316Z" fill="#4D575F"/>
<path fill-rule="evenodd" clip-rule="evenodd" d="M17.5325 45.1564C17.9063 45.1564 18.2121 45.4622 18.2121 45.836C18.2121 46.2097 17.9063 46.5155 17.5325 46.5155C12.6737 46.5155 8.29057 44.5448 5.13064 41.3849C1.97071 38.2249 0 33.8418 0 28.983C0 24.1582 1.97071 19.775 5.13064 16.6151C8.29057 13.4212 12.6737 11.4845 17.5325 11.4845C22.3574 11.4845 26.7405 13.4212 29.9004 16.6151C33.0943 19.775 35.065 24.1582 35.065 28.983C35.065 29.3568 34.7592 29.6626 34.3515 29.6626C33.9777 29.6626 33.6719 29.3568 33.6719 28.983C33.6719 24.5319 31.8711 20.4886 28.949 17.5665C26.0269 14.6444 21.9836 12.8436 17.5325 12.8436C13.0475 12.8436 9.03808 14.6444 6.08202 17.5665C3.15993 20.4886 1.35911 24.5319 1.35911 28.983C1.35911 33.4681 3.15993 37.5114 6.08202 40.4335C9.03808 43.3556 13.0475 45.1564 17.5325 45.1564Z" fill="#5B6E91"/>
<path d="M18.1441 40.8073C24.6744 40.8073 29.9683 35.5134 29.9683 28.983C29.9683 22.4527 24.6744 17.1588 18.1441 17.1588C11.6137 17.1588 6.31982 22.4527 6.31982 28.983C6.31982 35.5134 11.6137 40.8073 18.1441 40.8073Z" fill="#3B4655"/>
<path d="M18.1441 39.686C24.0552 39.686 28.8471 34.8941 28.8471 28.983C28.8471 23.0719 24.0552 18.28 18.1441 18.28C12.2331 18.28 7.44116 23.0719 7.44116 28.983C7.44116 34.8941 12.2331 39.686 18.1441 39.686Z" fill="white"/>
<path d="M17.6003 19.2994C17.6003 18.9936 17.8382 18.7557 18.144 18.7557C18.4158 18.7557 18.6876 18.9936 18.6876 19.2994V21.2701C18.6876 21.5759 18.4158 21.8137 18.144 21.8137C17.8382 21.8137 17.6003 21.5759 17.6003 21.2701V19.2994Z" fill="#3B4655"/>
<path d="M27.8278 28.4394C28.1336 28.4394 28.3715 28.7112 28.3715 28.983C28.3715 29.2888 28.1336 29.5266 27.8278 29.5266H25.8571C25.5513 29.5266 25.3135 29.2888 25.3135 28.983C25.3135 28.7112 25.5513 28.4394 25.8571 28.4394H27.8278Z" fill="#2B333E"/>
<path d="M18.6876 38.7006C18.6876 39.0064 18.4158 39.2443 18.144 39.2443C17.8382 39.2443 17.6003 39.0064 17.6003 38.7006V36.696C17.6003 36.3902 17.8382 36.1523 18.144 36.1523C18.4158 36.1523 18.6876 36.3902 18.6876 36.696V38.7006Z" fill="#3B4655"/>
<path d="M8.42646 29.5266C8.12066 29.5266 7.88281 29.2888 7.88281 28.983C7.88281 28.7112 8.12066 28.4394 8.42646 28.4394H10.4311C10.703 28.4394 10.9748 28.7112 10.9748 28.983C10.9748 29.2888 10.703 29.5266 10.4311 29.5266H8.42646Z" fill="#3B4655"/>
<path d="M22.5272 20.3187C22.6631 20.0469 23.0029 19.9789 23.2408 20.1148C23.5126 20.2847 23.5805 20.5905 23.4446 20.8623L22.4593 22.5952C22.2894 22.833 21.9836 22.935 21.7118 22.7991C21.4739 22.6292 21.372 22.2894 21.5079 22.0515L22.5272 20.3187Z" fill="#2B333E"/>
<path d="M26.2647 23.6825C26.5365 23.5126 26.8423 23.6145 27.0122 23.8863C27.1481 24.1242 27.0462 24.464 26.8083 24.5999L25.0755 25.6192C24.8037 25.7551 24.4979 25.6532 24.328 25.4153C24.1921 25.1435 24.294 24.8037 24.5318 24.6678L26.2647 23.6825Z" fill="#2B333E"/>
<path d="M26.8083 33.3661C27.0462 33.536 27.1481 33.8418 27.0122 34.1136C26.8423 34.3855 26.5365 34.4534 26.2647 34.3175L24.5318 33.3322C24.294 33.1623 24.1921 32.8565 24.328 32.5846C24.4979 32.3128 24.8037 32.2449 25.0755 32.3808L26.8083 33.3661Z" fill="#2B333E"/>
<path d="M23.4446 37.1377C23.5805 37.3755 23.5126 37.7153 23.2408 37.8512C23.0029 38.0211 22.6631 37.9192 22.5272 37.6813L21.5079 35.9484C21.372 35.6766 21.4739 35.3368 21.7118 35.2009C21.9836 35.065 22.2894 35.133 22.4593 35.4048L23.4446 37.1377Z" fill="#2B333E"/>
<path d="M13.761 37.6813C13.5911 37.9192 13.2514 38.0211 13.0135 37.8512C12.7417 37.7153 12.6737 37.3755 12.8097 37.1377L13.795 35.4048C13.9649 35.133 14.2707 35.065 14.5425 35.2009C14.8143 35.3368 14.8823 35.6766 14.7464 35.9484L13.761 37.6813Z" fill="#3B4655"/>
<path d="M9.98954 34.3175C9.75169 34.4534 9.41192 34.3855 9.24203 34.1136C9.10612 33.8418 9.20805 33.536 9.44589 33.3661L11.1788 32.3808C11.4506 32.2449 11.7564 32.3128 11.9263 32.5846C12.0622 32.8565 11.9942 33.1623 11.7224 33.3322L9.98954 34.3175Z" fill="#3B4655"/>
<path d="M9.44589 24.5999C9.20805 24.464 9.10612 24.1242 9.24203 23.8863C9.41192 23.6145 9.75169 23.5126 9.98954 23.6825L11.7224 24.6678C11.9942 24.8037 12.0622 25.1435 11.9263 25.4153C11.7564 25.6532 11.4506 25.7551 11.1788 25.6192L9.44589 24.5999Z" fill="#3B4655"/>
<path d="M12.8097 20.8623C12.6737 20.5905 12.7417 20.2847 13.0135 20.1148C13.2514 19.9789 13.5911 20.0469 13.761 20.3187L14.7464 22.0515C14.8823 22.2894 14.8143 22.6292 14.5425 22.7991C14.2707 22.935 13.9649 22.833 13.795 22.5952L12.8097 20.8623Z" fill="#3B4655"/>
<path fill-rule="evenodd" clip-rule="evenodd" d="M18.6876 28.3374C18.6876 28.6432 18.4158 28.8811 18.144 28.8811C17.8382 28.8811 17.6003 28.6432 17.6003 28.3374V24.362C17.6003 24.0562 17.8382 23.8184 18.144 23.8184C18.4158 23.8184 18.6876 24.0562 18.6876 24.362V28.3374Z" fill="#5B6E91"/>
<path fill-rule="evenodd" clip-rule="evenodd" d="M18.212 29.8324C18.0081 29.6286 18.0081 29.2888 18.212 29.0849C18.4158 28.8471 18.7556 28.8471 18.9595 29.0849L21.7796 31.9051C22.0175 32.109 22.0175 32.4487 21.7796 32.6526C21.5758 32.8565 21.236 32.8565 21.0321 32.6526L18.212 29.8324Z" fill="#5B6E91"/>
<path d="M18.1441 27.7938C18.4499 27.7938 18.7557 27.9297 18.9596 28.1336C19.1974 28.3714 19.3333 28.6772 19.3333 28.983C19.3333 29.3228 19.1974 29.6286 18.9596 29.8325C18.7557 30.0703 18.4499 30.1722 18.1441 30.1722C17.8043 30.1722 17.4985 30.0703 17.2947 29.8325C17.2607 29.8325 17.2607 29.7985 17.2607 29.7985C17.0568 29.5946 16.9209 29.2888 16.9209 28.983C16.9209 28.6772 17.0568 28.3714 17.2947 28.1336C17.4985 27.9297 17.8043 27.7938 18.1441 27.7938Z" fill="#3B4655"/>
<path fill-rule="evenodd" clip-rule="evenodd" d="M18.6877 27.9297C18.5178 27.8617 18.3139 27.7938 18.144 27.7938V28.8811V29.1869V29.7305V30.1722C18.246 30.1722 18.3819 30.1722 18.4838 30.1383C18.6877 30.0703 18.8576 29.9684 18.9595 29.8325C19.0954 29.6965 19.1974 29.5606 19.2653 29.3568C19.2993 29.2548 19.3333 29.1189 19.3333 28.983C19.3333 28.6772 19.1974 28.3714 18.9595 28.1336C18.8916 28.0656 18.7896 27.9977 18.6877 27.9297Z" fill="#2B333E"/>
<path fill-rule="evenodd" clip-rule="evenodd" d="M18.6877 24.362C18.6877 24.0562 18.4159 23.8184 18.144 23.8184V27.7938C18.3139 27.7938 18.5178 27.8617 18.6877 27.9297V24.362Z" fill="#4B5D7B"/>
<path fill-rule="evenodd" clip-rule="evenodd" d="M21.7797 31.9051L19.2654 29.3568C19.1974 29.5606 19.0955 29.6965 18.9596 29.8325C18.8576 29.9684 18.6878 30.0703 18.4839 30.1383L21.0322 32.6526C21.2361 32.8565 21.5759 32.8565 21.7797 32.6526C22.0176 32.4487 22.0176 32.109 21.7797 31.9051Z" fill="#4B5D7B"/>
<path fill-rule="evenodd" clip-rule="evenodd" d="M18.6877 36.696C18.6877 36.3902 18.4159 36.1523 18.144 36.1523V39.2443C18.4159 39.2443 18.6877 39.0064 18.6877 38.7006V36.696Z" fill="#2B333E"/>
<path fill-rule="evenodd" clip-rule="evenodd" d="M28.847 28.983C28.847 34.9291 24.0562 39.72 18.144 39.72V40.8412C24.6678 40.8412 29.9683 35.5407 29.9683 28.983C29.9683 22.4593 24.6678 17.1588 18.144 17.1588V18.28C24.0562 18.28 28.847 23.0709 28.847 28.983Z" fill="#2B333E"/>
<path d="M18.6877 19.2994C18.6877 18.9936 18.4159 18.7557 18.144 18.7557V21.8137C18.4159 21.8137 18.6877 21.5759 18.6877 21.2701V19.2994Z" fill="#2B333E"/>
<path fill-rule="evenodd" clip-rule="evenodd" d="M28.847 28.983C28.847 23.0709 24.0562 18.28 18.144 18.28V18.7557C18.4159 18.7557 18.6877 18.9935 18.6877 19.2993V21.2701C18.6877 21.5759 18.4159 21.8137 18.144 21.8137V23.8184C18.4159 23.8184 18.6877 24.0562 18.6877 24.362V27.9297C18.7896 27.9976 18.8916 28.0656 18.9595 28.1336C19.1974 28.3714 19.3333 28.6772 19.3333 28.983C19.3333 29.1189 19.2993 29.2548 19.2653 29.3568L21.7797 31.9051C22.0175 32.109 22.0175 32.4487 21.7797 32.6526C21.5758 32.8565 21.236 32.8565 21.0322 32.6526L18.4838 30.1382C18.3819 30.1722 18.246 30.1722 18.144 30.1722V36.1523C18.4159 36.1523 18.6877 36.3902 18.6877 36.6959V38.7006C18.6877 39.0064 18.4159 39.2443 18.144 39.2443V39.72C24.0562 39.72 28.847 34.9291 28.847 28.983ZM21.5078 22.0515L22.5272 20.3187C22.6631 20.0469 23.0029 19.9789 23.2407 20.1148C23.5125 20.2847 23.5805 20.5905 23.4446 20.8623L22.4592 22.5952C22.2893 22.833 21.9835 22.935 21.7117 22.7991C21.4739 22.6292 21.3719 22.2894 21.5078 22.0515ZM25.857 28.4394H27.8277C28.1335 28.4394 28.3713 28.7112 28.3713 28.983C28.3713 29.2888 28.1335 29.5266 27.8277 29.5266H25.857C25.5512 29.5266 25.3133 29.2888 25.3133 28.983C25.3133 28.7112 25.5512 28.4394 25.857 28.4394ZM26.2647 23.6825C26.5365 23.5126 26.8423 23.6145 27.0122 23.8863C27.1481 24.1242 27.0462 24.464 26.8084 24.5999L25.0755 25.6192C24.8037 25.7551 24.4979 25.6532 24.328 25.4153C24.1921 25.1435 24.294 24.8037 24.5319 24.6678L26.2647 23.6825ZM25.0755 32.3808L26.8084 33.3661C27.0462 33.536 27.1481 33.8418 27.0122 34.1136C26.8423 34.3855 26.5365 34.4534 26.2647 34.3175L24.5319 33.3322C24.294 33.1623 24.1921 32.8565 24.328 32.5846C24.4979 32.3128 24.8037 32.2449 25.0755 32.3808ZM22.4592 35.4048L23.4446 37.1377C23.5805 37.3755 23.5125 37.7153 23.2407 37.8512C23.0029 38.0211 22.6631 37.9191 22.5272 37.6813L21.5078 35.9484C21.3719 35.6766 21.4739 35.3368 21.7117 35.2009C21.9835 35.065 22.2893 35.133 22.4592 35.4048Z" fill="#E6E6E6"/>
<path fill-rule="evenodd" clip-rule="evenodd" d="M35.6765 23.9883C35.7785 23.6485 36.1862 23.4446 36.526 23.5806C36.8997 23.7165 37.0696 24.1242 36.9337 24.464L35.0989 29.4587C34.963 29.7985 34.5553 30.0023 34.2155 29.8664C34.1136 29.8325 34.0456 29.7985 34.0116 29.7305L30.3081 26.5026C30.0362 26.2648 30.0023 25.8231 30.2401 25.5513C30.478 25.2794 30.9197 25.2455 31.1915 25.4833L34.1475 28.0656L35.6765 23.9883Z" fill="#5B6E91"/>
</g>
<defs>
<clipPath id="clip0_1542_2873">
<rect width="58" height="58" fill="white"/>
</clipPath>
</defs>
</svg>
