<svg width="165" height="160" viewBox="0 0 165 160" fill="none" xmlns="http://www.w3.org/2000/svg">
<ellipse cx="82.5" cy="80" rx="82.5" ry="80" fill="url(#paint0_radial_12_83)"/>
<path fill-rule="evenodd" clip-rule="evenodd" d="M62.8424 97.2317H85.9176V95.8724C85.9176 95.0128 86.1067 94.1966 86.4456 93.4626C85.9172 93.7162 85.2641 93.6249 84.826 93.1882C84.3136 92.6775 84.2749 91.8733 84.7101 91.3184L84.2628 90.5832C83.494 89.3198 83.4578 87.8006 84.1737 86.5054L86.1857 82.8654C87.0872 81.2342 88.8827 80.3361 90.7309 80.6095C90.881 80.1584 91.0052 79.7027 91.1028 79.2568C91.1301 79.1319 91.1553 79.0083 91.1784 78.8865C88.6455 77.894 85.8871 77.3486 83.0005 77.3486C81.5846 77.3486 80.1995 77.4804 78.8569 77.7313C78.0029 78.6389 76.9819 80.4551 76.2846 82.6577C75.8715 83.9623 75.5933 85.3774 75.5589 86.788C76.6361 87.2429 77.3916 88.3062 77.3916 89.5456C77.3916 91.1989 76.0466 92.5392 74.3876 92.5392C72.7286 92.5392 71.3836 91.1989 71.3836 89.5456C71.3836 88.5065 71.9149 87.5913 72.7211 87.0544C72.7242 85.242 73.0606 83.4424 73.5785 81.8066C73.9059 80.7729 74.3145 79.7941 74.7643 78.9102C67.8559 81.6402 62.6373 87.702 61.1051 95.1066C60.8764 96.2096 61.7121 97.2317 62.8424 97.2317ZM95.8252 90.444H98.0803C98.4893 90.444 98.8227 90.7766 98.8227 91.184V92.8244H95.0827V91.184C95.0827 90.7763 95.4162 90.444 95.8252 90.444ZM106.043 90.444H108.298C108.707 90.444 109.04 90.7766 109.04 91.184V92.8244H105.3V91.184C105.301 90.7763 105.634 90.444 106.043 90.444ZM116.261 90.444H118.516C118.925 90.444 119.259 90.7766 119.259 91.184V92.8244H115.519V91.184C115.518 90.7763 115.852 90.444 116.261 90.444ZM54.8979 38.9813C58.4578 38.9813 61.6726 40.4527 63.9647 42.8177C74.2581 37.2707 86.3699 36.4654 97.3107 40.6527C114.129 47.0893 124.522 63.9408 122.734 81.7074L124.57 79.8182C125.115 79.2598 126.011 79.2474 126.571 79.7906C127.132 80.3338 127.144 81.227 126.599 81.7854L121.657 86.8718C120.984 87.5614 119.84 87.3874 119.393 86.5519L115.674 80.6337C115.261 79.9745 115.462 79.1061 116.123 78.6941C116.785 78.2821 117.656 78.4825 118.069 79.1417L119.858 81.988C121.78 65.3056 112.132 49.3416 96.3015 43.283C86.2861 39.4499 75.1967 40.1157 65.7114 45.0861C66.8484 46.9728 67.5026 49.1817 67.5026 51.5427C67.5026 58.4799 61.8591 64.104 54.8979 64.104C47.9366 64.104 42.2932 58.4799 42.2932 51.5427C42.2932 44.6054 47.9367 38.9813 54.8979 38.9813ZM97.8925 116.039V114.158C97.8925 113.573 97.4144 113.097 96.8279 113.097H93.9375C93.3511 113.097 92.8729 113.573 92.8729 114.158V116.039C92.8729 116.624 93.3511 117.1 93.9375 117.1H96.8279C97.4144 117.1 97.8925 116.624 97.8925 116.039ZM120.409 106.264H117.513C116.927 106.264 116.449 106.74 116.449 107.325V109.206C116.449 109.791 116.927 110.267 117.513 110.267H120.409C120.996 110.267 121.474 109.791 121.474 109.206V107.325C121.474 106.741 120.996 106.264 120.409 106.264ZM112.545 106.264H109.655C109.068 106.264 108.59 106.74 108.59 107.325V109.206C108.59 109.791 109.068 110.267 109.655 110.267H112.545C113.132 110.267 113.61 109.791 113.61 109.206V107.325C113.61 106.741 113.131 106.264 112.545 106.264ZM104.687 106.264H101.796C101.21 106.264 100.732 106.74 100.732 107.325V109.206C100.732 109.791 101.21 110.267 101.796 110.267H104.687C105.273 110.267 105.751 109.791 105.751 109.206V107.325C105.751 106.741 105.273 106.264 104.687 106.264ZM105.751 116.039V114.158C105.751 113.573 105.273 113.097 104.687 113.097H101.796C101.21 113.097 100.732 113.573 100.732 114.158V116.039C100.732 116.624 101.21 117.1 101.796 117.1H104.687C105.273 117.1 105.751 116.624 105.751 116.039ZM108.59 114.158V116.039C108.59 116.624 109.068 117.1 109.655 117.1H112.545C113.132 117.1 113.61 116.624 113.61 116.039V114.158C113.61 113.573 113.132 113.097 112.545 113.097H109.655C109.068 113.097 108.59 113.573 108.59 114.158ZM96.8279 106.264H93.9375C93.3511 106.264 92.8729 106.74 92.8729 107.325V109.206C92.8729 109.791 93.3511 110.267 93.9375 110.267H96.8279C97.4144 110.267 97.8925 109.791 97.8925 109.206V107.325C97.8925 106.741 97.4144 106.264 96.8279 106.264ZM122.615 92.9127C124.25 92.9127 125.585 94.2422 125.585 95.8724V98.535H88.7565V95.8724C88.7565 94.2422 90.0907 92.9127 91.7265 92.9127H95.0827V95.6724C95.0827 96.08 95.4164 96.4124 95.8252 96.4124H98.0803C98.4891 96.4124 98.8227 96.0798 98.8227 95.6724V92.9127H105.3V95.6724C105.3 96.08 105.634 96.4124 106.043 96.4124H108.298C108.707 96.4124 109.04 96.0798 109.04 95.6724V92.9127H115.518V95.6724C115.518 96.08 115.852 96.4124 116.261 96.4124H118.516C118.925 96.4124 119.258 96.0798 119.258 95.6724V92.9127H122.615ZM125.585 101.364V114.37H120.09C119.494 114.37 118.953 114.612 118.562 115.001C118.171 115.391 117.928 115.93 117.928 116.524V122H91.7266C90.0909 122 88.7567 120.67 88.7567 119.04V117.173C81.8923 118.173 74.9863 117.344 68.6893 114.934C51.829 108.481 41.4871 91.5967 43.2609 73.8843L41.4302 75.7687C40.8851 76.3271 39.9889 76.3395 39.4285 75.7963C38.8682 75.2531 38.8557 74.3599 39.4008 73.8015L44.3426 68.7151C44.8877 68.1567 45.7839 68.1443 46.3442 68.6875C46.452 68.792 46.5394 68.9095 46.6067 69.035L50.3257 74.9532C50.7392 75.6124 50.5381 76.4808 49.8766 76.8928C49.2152 77.3048 48.3438 77.1044 47.9303 76.4452L46.1445 73.6035C44.2225 90.2382 53.8304 106.231 69.6982 112.304C75.6749 114.592 82.2425 115.346 88.7564 114.322V101.365H125.585V101.364ZM124.165 117.199H120.767V120.585L124.165 117.199ZM53.4784 44.0797V51.5427C53.4784 52.1022 53.8044 52.5858 54.2774 52.8153L59.6076 55.8822C60.2843 56.2728 61.1507 56.0427 61.5427 55.3683C61.9346 54.6939 61.7038 53.8305 61.0271 53.4398L56.3174 50.73V44.0797C56.3174 43.2985 55.6818 42.6651 54.8979 42.6651C54.114 42.6651 53.4784 43.2985 53.4784 44.0797ZM83.0002 53.0501C76.7573 53.0501 71.6963 58.0937 71.6963 64.3152C71.6963 70.5366 76.7573 75.5802 83.0002 75.5802C89.2431 75.5802 94.3041 70.5366 94.3041 64.3152C94.3041 58.0937 89.2431 53.0501 83.0002 53.0501ZM102.902 89.4702C100.871 85.5277 97.6959 82.2672 93.8131 80.1246C93.7146 80.5402 93.5968 80.9617 93.4606 81.3819C95.0536 82.1304 96.0366 83.7278 96.0011 85.4846L95.958 87.6148H98.0803C99.6708 87.6148 101.021 88.6519 101.487 90.0835H102.636C102.706 89.8695 102.795 89.6644 102.902 89.4702ZM93.1037 88.8657C92.8005 89.2188 92.5654 89.6315 92.4179 90.0835H91.7265C90.5607 90.0835 89.4741 90.4279 88.5633 91.0196C88.6068 90.6095 88.4709 90.1841 88.1556 89.8699C87.8129 89.5284 87.3388 89.3981 86.8956 89.4787L86.68 89.1244C86.4305 88.7143 86.4258 88.2837 86.6573 87.8647L88.6693 84.2247C89.0392 83.5556 89.7709 83.2477 90.5109 83.4452L91.9685 83.8344C92.7109 84.0327 93.1885 84.6629 93.1731 85.4292L93.1037 88.8657Z" fill="white"/>
<defs>
<radialGradient id="paint0_radial_12_83" cx="0" cy="0" r="1" gradientUnits="userSpaceOnUse" gradientTransform="translate(83 65) rotate(91.8087) scale(95.0474 98.0176)">
<stop stop-color="#6A80A9"/>
<stop offset="1" stop-color="#39465B"/>
</radialGradient>
</defs>
</svg>
