<svg width="165" height="160" viewBox="0 0 165 160" fill="none" xmlns="http://www.w3.org/2000/svg">
<ellipse cx="82.5" cy="80" rx="82.5" ry="80" fill="url(#paint0_radial_12_62)"/>
<path d="M118.193 80.6312C124.438 80.6312 129.499 85.697 129.499 91.9365C129.499 98.1759 124.438 103.247 118.193 103.247C111.948 103.247 106.888 98.1816 106.888 91.9365C106.888 85.6914 111.948 80.6312 118.193 80.6312ZM65.6584 36.0463H56.9551V54.3277H65.6584V36.0463ZM87.0014 36.0463H78.2981V54.3277H87.0014V36.0463ZM108.344 36.0463H99.6356V54.3277H108.344V36.0463ZM95.6272 116.28H52.0887C49.3426 116.28 47.1004 114.038 47.1004 111.297V63.4406H118.193V77.5086C110.226 77.5086 103.76 83.9695 103.76 91.9365C103.76 96.0168 105.454 99.6986 108.172 102.323C102.304 105.047 97.7254 110.09 95.6272 116.28ZM100.089 73.1957C100.089 72.332 99.3918 71.6344 98.5281 71.6344H66.7656C65.902 71.6344 65.2043 72.332 65.2043 73.1957V104.958C65.2043 105.822 65.902 106.525 66.7656 106.525H98.5281C99.3918 106.525 100.089 105.822 100.089 104.958V73.1957ZM125.302 104.499C120.906 106.995 115.481 106.995 111.085 104.499C103.151 107.4 97.4873 115.012 97.4873 123.953H138.9C138.9 115.012 133.236 107.4 125.302 104.499ZM118.194 50.1697C118.194 47.4293 115.951 45.1869 113.211 45.1869H111.467V57.4556H96.5129V45.1869H90.1238V57.4556H75.1699V45.1869H68.7809V57.4556H53.8272V45.1869H52.0887C49.3426 45.1869 47.1004 47.4291 47.1004 50.1697V60.3179H118.193V50.1697H118.194ZM68.3272 74.7625H96.967V103.397H68.327V74.7625H68.3272ZM76.1225 90.6353L79.4664 94.1455C80.0865 94.7988 81.1274 94.7931 81.7363 94.1344L89.1883 86.1453C89.7752 85.5142 89.742 84.5287 89.1108 83.9418C88.4797 83.3549 87.4942 83.3937 86.9072 84.0248L80.5846 90.8013L78.3756 88.4871C77.7832 87.8615 76.7977 87.8338 76.1776 88.4318C75.552 89.0242 75.5242 90.0097 76.1223 90.6353H76.1225Z" fill="white"/>
<defs>
<radialGradient id="paint0_radial_12_62" cx="0" cy="0" r="1" gradientUnits="userSpaceOnUse" gradientTransform="translate(83 65) rotate(91.8087) scale(95.0474 98.0176)">
<stop stop-color="#6A80A9"/>
<stop offset="1" stop-color="#39465B"/>
</radialGradient>
</defs>
</svg>
