<svg width="51" height="51" viewBox="0 0 51 51" fill="none" xmlns="http://www.w3.org/2000/svg">
<g clip-path="url(#clip0_1542_3228)">
<path fill-rule="evenodd" clip-rule="evenodd" d="M18.6531 40.9651H32.3471V49.5581H18.6531V40.9651Z" fill="#E3F5FF"/>
<path fill-rule="evenodd" clip-rule="evenodd" d="M28.8691 40.9651H32.3469V49.5581H28.8691V40.9651Z" fill="#C4D3E4"/>
<path fill-rule="evenodd" clip-rule="evenodd" d="M1.04126 13.7276H49.9587V43.229H1.04126V13.7276Z" fill="#BCCCDC"/>
<path fill-rule="evenodd" clip-rule="evenodd" d="M4.22388 36.872H33.0097V29.2676C33.0097 26.2548 30.5455 23.7878 27.5327 23.7878H9.70369C6.68811 23.7878 4.22388 26.2548 4.22388 29.2676V36.872Z" fill="#5B6E91"/>
<path fill-rule="evenodd" clip-rule="evenodd" d="M15.334 20.0371H21.9026V23.7794L18.6169 26.6948L15.334 23.7794V20.0371Z" fill="#BCCCDC"/>
<path fill-rule="evenodd" clip-rule="evenodd" d="M26.4941 34.0737C27.7303 34.0737 28.7384 33.0628 28.7384 31.8266C28.7384 30.5903 27.7304 29.5823 26.4941 29.5823C25.2577 29.5823 24.2498 30.5903 24.2498 31.8266C24.2498 33.0628 25.2577 34.0737 26.4941 34.0737Z" fill="#EAF6FF"/>
<path fill-rule="evenodd" clip-rule="evenodd" d="M10.4082 14.5935H26.8254V8.0834C26.8254 4.50255 23.8962 1.57333 20.3154 1.57333H16.9183C13.3374 1.57333 10.4082 4.50255 10.4082 8.0834V14.5935Z" fill="#5B6E91"/>
<path fill-rule="evenodd" clip-rule="evenodd" d="M29.7297 0.637802H46.6175V15.6572H41.5358L38.1722 19.0208L34.8086 15.6572H29.7297V0.637802Z" fill="#4B5D7B"/>
<path fill-rule="evenodd" clip-rule="evenodd" d="M36.2453 3.80927H40.1017V6.07299H42.3656V9.92956H40.1017V12.1933H36.2453V9.92956H33.9814V6.07299H36.2453V3.80927Z" fill="#EAF6FF"/>
<path fill-rule="evenodd" clip-rule="evenodd" d="M48.2659 13.7276H49.9588V43.229H48.2659V13.7276Z" fill="#4B5D7B"/>
<path fill-rule="evenodd" clip-rule="evenodd" d="M1.04126 36.872V43.229H18.653H32.3471H49.9588V36.872H33.0098H18.6168H4.22398H1.04126Z" fill="#506480"/>
<path fill-rule="evenodd" clip-rule="evenodd" d="M48.2659 36.872H49.9588V43.229H48.2659V36.872Z" fill="#3E526E"/>
<path fill-rule="evenodd" clip-rule="evenodd" d="M44.2174 0.637802H46.6175V15.6572H44.2174V0.637802ZM41.5359 15.6572L38.1723 19.0208L36.9722 17.8235L39.1385 15.6572H41.5359Z" fill="#4B5D7B"/>
<path fill-rule="evenodd" clip-rule="evenodd" d="M24.8595 14.5935H26.8253V8.0834C26.8253 4.50255 23.8961 1.57333 20.3153 1.57333H18.3494C21.9302 1.57333 24.8594 4.50255 24.8594 8.0834L24.8595 14.5935Z" fill="#025F80"/>
<path fill-rule="evenodd" clip-rule="evenodd" d="M12.775 11.9232H24.4614C25.8147 11.9232 26.9228 13.0314 26.9228 14.3847C26.9228 15.7407 25.8146 16.8489 24.4614 16.8489H12.775C11.4189 16.8489 10.3108 15.7407 10.3108 14.3847C10.3108 13.0314 11.4189 11.9232 12.775 11.9232Z" fill="#BCCCDC"/>
<path fill-rule="evenodd" clip-rule="evenodd" d="M12.7722 10.0966H17.9931C18.4386 10.0966 18.8228 9.94899 19.1514 9.64827L20.7219 8.21429C20.9586 7.99704 21.2816 7.94415 21.5767 8.07225C21.8691 8.20313 22.0473 8.47875 22.0473 8.799V9.57027C22.0473 9.85984 22.2867 10.0965 22.5763 10.0965H24.4614C24.6814 10.0965 24.8596 10.2747 24.8596 10.4946V14.9415C24.8596 18.3747 22.0501 21.1843 18.6167 21.1843C15.1863 21.1843 12.3767 18.3748 12.3767 14.9415V10.4946C12.3767 10.2748 12.555 10.0966 12.7722 10.0966Z" fill="white"/>
<path d="M50.1586 13.1966C49.7214 13.1966 49.367 13.551 49.367 13.9881V36.6271H33.7654V29.6544C33.7654 26.226 30.9774 23.4367 27.5506 23.4367H22.5652V20.9334C23.6797 20.1513 24.5556 19.0528 25.0625 17.7688C26.5351 17.4845 27.6293 16.197 27.6293 14.6506C27.6293 14.3794 27.5948 14.1157 27.531 13.8635V8.29826C27.531 4.29715 24.2759 1.04202 20.2748 1.04202H16.8502C12.8491 1.04202 9.59398 4.29715 9.59398 8.29826V13.1966H0.8414C0.404215 13.1966 0.0498047 13.551 0.0498047 13.9881V43.729C0.0498047 44.1662 0.404215 44.5206 0.8414 44.5206H17.8073V49.3178H8.77698C8.3398 49.3178 7.98538 49.6722 7.98538 50.1094C7.98538 50.5466 8.3398 50.901 8.77698 50.901H18.599H32.404H42.2231C42.6603 50.901 43.0147 50.5466 43.0147 50.1094C43.0147 49.6722 42.6603 49.3178 42.2231 49.3178H33.1956V44.5206H50.1587C50.5959 44.5206 50.9503 44.1662 50.9503 43.729V13.9881C50.9502 13.551 50.5958 13.1966 50.1586 13.1966ZM32.3787 29.6544V36.6271H19.2557V27.3722L22.1257 24.8234H25.8101V29.3612C24.5138 29.6743 23.5476 30.8444 23.5476 32.2368C23.5476 33.8667 24.8736 35.1927 26.5034 35.1927C28.1332 35.1927 29.4592 33.8667 29.4592 32.2368C29.4592 30.8444 28.493 29.6743 27.1966 29.3612V24.8234H27.5504C30.2128 24.8235 32.3787 26.9907 32.3787 29.6544ZM4.74599 36.6272V29.6545C4.74599 26.9908 6.91319 24.8236 9.57694 24.8236H10.9356V26.1234C9.08119 26.4523 7.66813 28.0747 7.66813 30.0222V34.2889C7.66813 34.6719 7.97851 34.9823 8.36151 34.9823H9.99241C10.3753 34.9823 10.6858 34.6719 10.6858 34.2889C10.6858 33.9059 10.3754 33.5956 9.99241 33.5956H9.05489V30.0222C9.05489 28.6028 10.2097 27.4482 11.629 27.4482C13.0483 27.4482 14.2031 28.6028 14.2031 30.0222V33.5956H13.2627C12.8798 33.5956 12.5693 33.9059 12.5693 34.2889C12.5693 34.6719 12.8797 34.9823 13.2627 34.9823H14.8964C15.2793 34.9823 15.5898 34.6719 15.5898 34.2889V30.0222C15.5898 28.0748 14.1767 26.4524 12.3224 26.1234V24.8236H14.9991L17.8691 27.3724V36.6273H4.74599V36.6272ZM26.5036 30.665C27.3688 30.665 28.0727 31.3701 28.0727 32.2369C28.0727 33.1021 27.3688 33.806 26.5036 33.806C25.6384 33.806 24.9344 33.1021 24.9344 32.2369C24.9343 31.3701 25.6383 30.665 26.5036 30.665ZM21.1785 23.8101L18.5624 26.1334L15.9463 23.8101V21.6884C16.7549 22.0165 17.6375 22.1988 18.5624 22.1988C19.4873 22.1988 20.3699 22.0166 21.1785 21.6887V23.8101ZM21.5637 19.9363C21.5213 19.9574 21.4814 19.9825 21.4444 20.0115C20.6019 20.5193 19.6158 20.8121 18.5623 20.8121C17.5068 20.8121 16.5189 20.518 15.6754 20.0078C15.6416 19.9817 15.6054 19.9587 15.567 19.9391C14.0046 18.9446 12.965 17.1981 12.965 15.212V11.0211H17.9335C18.5595 11.0211 19.1099 10.8078 19.5688 10.3879L21.1531 8.94114C21.1888 8.90837 21.2214 8.90289 21.2624 8.92102C21.3097 8.94194 21.3273 8.96873 21.3273 9.01983V9.79738C21.3273 10.4722 21.8775 11.0213 22.554 11.0213H24.1624V15.2122C24.1624 15.7878 24.075 16.3432 23.9129 16.8662C23.8997 16.8978 23.8886 16.9305 23.8802 16.9644C23.4716 18.2013 22.643 19.2481 21.5637 19.9363ZM10.9338 14.2366C10.9489 14.1974 10.9606 14.1567 10.9684 14.1145C11.0798 13.7688 11.2945 13.4643 11.5784 13.2419V15.2121C11.5784 15.5146 11.5999 15.8119 11.6373 16.1042C11.1819 15.7763 10.8822 15.2419 10.8822 14.6507C10.8822 14.5089 10.9011 14.3704 10.9338 14.2366ZM25.4905 16.1018C25.5278 15.8102 25.5491 15.5137 25.5491 15.2121V13.2429C25.8314 13.465 26.0451 13.7686 26.1561 14.1134C26.164 14.1563 26.1758 14.1977 26.1912 14.2376C26.2237 14.3711 26.2425 14.5093 26.2425 14.6508C26.2425 15.2405 25.9441 15.7736 25.4905 16.1018ZM16.85 2.42868H20.2746C23.5111 2.42868 26.1442 5.06175 26.1442 8.29826V11.959C25.9586 11.8429 25.7594 11.7452 25.549 11.6685V10.7292C25.549 10.1256 25.0579 9.63442 24.4542 9.63442H22.7138V9.01973C22.7138 8.42008 22.373 7.89654 21.8214 7.652C21.2726 7.41174 20.6573 7.51414 20.2167 7.91825L18.6329 9.36448C18.4317 9.54866 18.2094 9.63452 17.9334 9.63452H12.6703C12.0682 9.63452 11.5784 10.1256 11.5784 10.7293V11.6712C11.3676 11.7498 11.1673 11.8499 10.9804 11.9695V8.29826C10.9804 5.06175 13.6135 2.42868 16.85 2.42868ZM9.49865 14.7798C9.55772 16.2692 10.6322 17.4942 12.0651 17.7695C12.5715 19.0526 13.4464 20.1504 14.5595 20.9323V23.4368H9.57694C6.14849 23.4368 3.35933 26.2261 3.35933 29.6545V36.6272H1.633V14.7798H9.49865ZM31.6124 49.3179H19.3905V44.5207H31.6124V49.3179ZM1.633 42.9374V38.0139H4.05271H33.0721H49.3671V42.9374H1.633ZM29.7625 16.6269H34.5982L37.7861 19.8147C37.9215 19.9501 38.0989 20.0178 38.2764 20.0178C38.4538 20.0178 38.6313 19.9501 38.7667 19.8147L41.9546 16.6269H46.7874C47.1703 16.6269 47.4808 16.3165 47.4808 15.9335V0.792197C47.4808 0.409298 47.1704 0.0988159 46.7874 0.0988159H29.7625C29.3796 0.0988159 29.0691 0.409199 29.0691 0.792197V15.9335C29.0692 16.3165 29.3796 16.6269 29.7625 16.6269ZM30.4559 1.48558H46.094V15.2401H41.6673C41.4834 15.2401 41.3071 15.3133 41.177 15.4432L38.2764 18.344L35.3757 15.4432C35.2457 15.3133 35.0693 15.2401 34.8854 15.2401H30.4559V1.48558ZM35.6377 12.4415C35.6377 12.8244 35.9481 13.1349 36.3311 13.1349H40.2217C40.6046 13.1349 40.9151 12.8245 40.9151 12.4415V10.8526H42.5038C42.8867 10.8526 43.1972 10.5423 43.1972 10.1593V6.27151C43.1972 5.88861 42.8868 5.57813 42.5038 5.57813H40.9151V3.98946C40.9151 3.60656 40.6047 3.29608 40.2217 3.29608H36.3311C35.9482 3.29608 35.6377 3.60646 35.6377 3.98946V5.57833H34.0489C33.666 5.57833 33.3555 5.88871 33.3555 6.27171V10.1595C33.3555 10.5424 33.6659 10.8528 34.0489 10.8528H35.6377V12.4415ZM34.7423 9.46608V6.96499H36.3311C36.714 6.96499 37.0245 6.65461 37.0245 6.27161V4.68284H39.5284V6.27171C39.5284 6.65461 39.8388 6.96509 40.2218 6.96509H41.8105V9.46618H40.2218C39.8389 9.46618 39.5284 9.77656 39.5284 10.1596V11.7484H37.0245V10.1596C37.0245 9.77666 36.7141 9.46618 36.3311 9.46618L34.7423 9.46608ZM47.2533 21.7806C47.6362 21.7806 47.9467 22.091 47.9467 22.474C47.9467 22.857 47.6363 23.1674 47.2533 23.1674H35.9774C35.5945 23.1674 35.284 22.857 35.284 22.474C35.284 22.091 35.5944 21.7806 35.9774 21.7806H47.2533ZM47.9467 25.3989C47.9467 25.7819 47.6363 26.0923 47.2533 26.0923H35.9774C35.5945 26.0923 35.284 25.7819 35.284 25.3989C35.284 25.0159 35.5944 24.7055 35.9774 24.7055H47.2534C47.6362 24.7055 47.9467 25.0159 47.9467 25.3989ZM47.9467 28.3238C47.9467 28.7068 47.6363 29.0172 47.2533 29.0172H35.9774C35.5945 29.0172 35.284 28.7068 35.284 28.3238C35.284 27.9408 35.5944 27.6304 35.9774 27.6304H47.2534C47.6362 27.6304 47.9467 27.9409 47.9467 28.3238ZM47.9467 31.2461C47.9467 31.6291 47.6363 31.9395 47.2533 31.9395H35.9774C35.5945 31.9395 35.284 31.6291 35.284 31.2461C35.284 30.8631 35.5944 30.5527 35.9774 30.5527H47.2534C47.6362 30.5527 47.9467 30.8631 47.9467 31.2461ZM47.9467 34.171C47.9467 34.554 47.6363 34.8644 47.2533 34.8644H35.9774C35.5945 34.8644 35.284 34.554 35.284 34.171C35.284 33.788 35.5944 33.4776 35.9774 33.4776H47.2534C47.6362 33.4776 47.9467 33.788 47.9467 34.171Z" fill="black"/>
</g>
<defs>
<clipPath id="clip0_1542_3228">
<rect width="51" height="51" fill="white"/>
</clipPath>
</defs>
</svg>
