<svg width="37" height="36" viewBox="0 0 37 36" fill="none" xmlns="http://www.w3.org/2000/svg">
<g opacity="0.5" clip-path="url(#clip0_1226_4148)">
<path d="M18.5001 0.0749512C8.28289 0.0749512 0 8.13398 0 18.0751C0 26.991 6.66965 34.375 15.4147 35.8048V21.8304H10.9519V16.8015H15.4147V13.0935C15.4147 8.79103 18.1154 6.44646 22.0607 6.44646C23.9502 6.44646 25.5741 6.58345 26.0455 6.64379V11.141L23.3091 11.1423C21.164 11.1423 20.7505 12.1339 20.7505 13.5895V16.799H25.8689L25.2013 21.8278H20.7505V35.9251C29.9038 34.8411 37 27.2691 37 18.0699C37 8.13398 28.7171 0.0749512 18.5001 0.0749512Z" fill="white"/>
</g>
<defs>
<clipPath id="clip0_1226_4148">
<rect width="37" height="36" fill="white"/>
</clipPath>
</defs>
</svg>
