<svg width="79" height="79" viewBox="0 0 79 79" fill="none" xmlns="http://www.w3.org/2000/svg">
<circle cx="39.5" cy="39.5" r="39.5" fill="white"/>
<g clip-path="url(#clip0_13_83)">
<path d="M52.6017 37.4065V32.0934C52.6017 31.8768 52.4261 31.7012 52.2095 31.7012H52.1717C50.5566 31.7012 49.1018 30.7097 48.5276 29.2002C48.4099 28.8905 48.2826 28.5856 48.1463 28.2857C47.4717 26.8021 47.7854 25.0562 48.9378 23.9036C49.0908 23.7506 49.0908 23.5023 48.9378 23.3493L45.1805 19.592C45.0274 19.439 44.7792 19.439 44.6262 19.592L44.5985 19.6196C43.4526 20.7655 41.7184 21.0847 40.2396 20.4217C39.9392 20.287 39.6338 20.1614 39.3236 20.0453C37.8024 19.4759 36.7988 18.0166 36.7988 16.3922C36.7988 16.1756 36.6232 16 36.4066 16H31.0935C30.8769 16 30.7013 16.1756 30.7013 16.3922V16.43C30.7013 18.045 29.7098 19.4999 28.2003 20.074C27.8906 20.1918 27.5857 20.319 27.2858 20.4554C25.8021 21.13 24.0562 20.8163 22.9037 19.6639C22.7507 19.5108 22.5024 19.5108 22.3494 19.6639L18.592 23.4212C18.439 23.5742 18.439 23.8225 18.592 23.9755L18.6196 24.0031C19.7655 25.149 20.0847 26.8833 19.4217 28.362C19.287 28.6625 19.1614 28.9679 19.0453 29.278C18.4759 30.7992 17.0166 31.8028 15.3922 31.8028C15.1756 31.8028 15 31.9784 15 32.195V37.4704C15 37.7079 15.1925 37.9004 15.43 37.9004C17.045 37.9004 18.4999 38.8919 19.074 40.4014C19.1918 40.711 19.319 41.0159 19.4554 41.3158C20.13 42.7995 19.8163 44.5454 18.6639 45.6979C18.5108 45.851 18.5108 46.0991 18.6639 46.2522L22.4212 50.0096C22.5742 50.1626 22.8224 50.1626 22.9755 50.0096L23.0031 49.9819C24.149 48.836 25.8833 48.5169 27.362 49.1799C27.6625 49.3146 27.9679 49.4401 28.278 49.5562C29.7992 50.1257 30.8028 51.5851 30.8028 53.2094C30.8028 53.426 30.9784 53.6016 31.195 53.6016H36.4704C36.7079 53.6016 36.9004 53.4091 36.9004 53.1716C36.9004 51.5565 37.8919 50.1017 39.4014 49.5275C39.711 49.4098 40.0159 49.2825 40.3158 49.1462C41.7995 48.4716 43.5454 48.7853 44.6979 49.9377C44.851 50.0907 45.0992 50.0907 45.2522 49.9377L49.0096 46.1804C49.1626 46.0273 49.1626 45.7791 49.0096 45.6261L48.9819 45.5984C47.836 44.4525 47.5169 42.7183 48.1799 41.2396C48.3146 40.9391 48.4401 40.6337 48.5562 40.3235C49.1257 38.8023 50.5851 37.7987 52.2094 37.7987C52.4261 37.7988 52.6017 37.6231 52.6017 37.4065Z" fill="#5B6E91"/>
<path d="M48.982 45.5985C47.8361 44.4526 47.517 42.7184 48.18 41.2397C48.3147 40.9392 48.4403 40.6337 48.5564 40.3235C49.1259 38.8023 50.5853 37.7988 52.2095 37.7988C52.4261 37.7988 52.6017 37.6232 52.6017 37.4066V32.0935C52.6017 31.8769 52.4261 31.7013 52.2095 31.7013H52.1717C50.5566 31.7013 49.1018 30.7098 48.5276 29.2003C48.4099 28.8907 48.2826 28.5857 48.1463 28.2858C47.4717 26.8022 47.7854 25.0563 48.9378 23.9037C49.0908 23.7507 49.0908 23.5024 48.9378 23.3494L45.1805 19.5921C45.0274 19.4391 44.7792 19.4391 44.6262 19.5921L44.5985 19.6197C44.175 20.0432 43.6711 20.3534 43.1295 20.5432C44.7555 23.2046 45.6932 26.3323 45.6911 29.68C45.6851 39.2959 37.9896 47.0832 28.3744 47.198C25.0725 47.2375 21.9789 46.3616 19.3275 44.8116C19.1524 45.1318 18.9311 45.4311 18.664 45.6981C18.5109 45.8511 18.5109 46.0992 18.664 46.2523L22.4213 50.0097C22.5743 50.1627 22.8225 50.1627 22.9756 50.0097L23.0032 49.982C24.1491 48.8361 25.8834 48.5171 27.3621 49.1801C27.6626 49.3147 27.9681 49.4403 28.2781 49.5564C29.7993 50.126 30.8029 51.5852 30.8029 53.2095C30.8029 53.4261 30.9785 53.6017 31.1951 53.6017H36.4705C36.708 53.6017 36.9005 53.4092 36.9005 53.1717C36.9005 51.5567 37.8919 50.1018 39.4014 49.5276C39.711 49.4099 40.016 49.2826 40.316 49.1462C41.7997 48.4716 43.5455 48.7853 44.6979 49.9378C44.851 50.0908 45.0991 50.0908 45.2522 49.9378L49.0096 46.1805C49.1626 46.0274 49.1626 45.7792 49.0096 45.6262L48.982 45.5985Z" fill="#5B6E91"/>
<path d="M33.8008 47.4024C40.7605 47.4024 46.4024 41.7605 46.4024 34.8008C46.4024 27.8411 40.7605 22.1991 33.8008 22.1991C26.8411 22.1991 21.1991 27.8411 21.1991 34.8008C21.1991 41.7605 26.8411 47.4024 33.8008 47.4024Z" fill="#EFF3F5"/>
<path d="M53.313 66C59.7675 66 65 60.7675 65 54.313C65 47.8584 59.7675 42.626 53.313 42.626C46.8584 42.626 41.626 47.8584 41.626 54.313C41.626 60.7675 46.8584 66 53.313 66Z" fill="#314455"/>
<path d="M59.6366 44.4833C60.8117 46.3062 61.4939 48.4769 61.4939 50.8069C61.4939 57.2615 56.2615 62.494 49.8069 62.494C47.4769 62.494 45.3062 61.8118 43.4833 60.6366C45.5634 63.8633 49.1886 66 53.313 66C59.7676 66 65 60.7676 65 54.313C65 50.1886 62.8633 46.5634 59.6366 44.4833Z" fill="#314455"/>
<path d="M53.313 63.0528C58.1399 63.0528 62.0528 59.1399 62.0528 54.313C62.0528 49.4861 58.1399 45.5732 53.313 45.5732C48.4861 45.5732 44.5731 49.4861 44.5731 54.313C44.5731 59.1399 48.4861 63.0528 53.313 63.0528Z" fill="#EFF3F5"/>
<path d="M52.0443 59.0251C51.6489 59.0251 51.2679 58.8713 50.9827 58.5945L48.2282 55.921C47.8412 55.5453 47.8319 54.9271 48.2076 54.54L48.9707 53.7538C49.3464 53.3668 49.9645 53.3576 50.3516 53.7332L51.6403 54.9841C51.8023 55.1413 52.0635 55.1289 52.2099 54.957L55.9312 50.5856C56.2811 50.1747 56.8979 50.1255 57.3086 50.4757L58.142 51.1866C58.5521 51.5364 58.6012 52.1523 58.2518 52.5628L53.2041 58.4899C52.9308 58.8104 52.5369 59.0036 52.1161 59.0233C52.0922 59.0246 52.0683 59.0251 52.0443 59.0251Z" fill="#314455"/>
<path d="M33.8008 26.2058C34.2176 26.2058 34.5553 25.868 34.5553 25.4513V24.8415C34.5553 24.4248 34.2175 24.087 33.8008 24.087C33.384 24.087 33.0463 24.4248 33.0463 24.8415V25.4513C33.0463 25.868 33.3841 26.2058 33.8008 26.2058Z" fill="#595959"/>
<path d="M34.9329 35.2525C34.9888 35.1127 35.0203 34.9605 35.0203 34.8008C35.0203 34.4124 34.8382 34.0672 34.5553 33.8438V28.0935C34.5553 27.6768 34.2175 27.339 33.8008 27.339C33.384 27.339 33.0463 27.6768 33.0463 28.0935V33.8438C32.7635 34.0672 32.5813 34.4124 32.5813 34.8007C32.5813 35.4145 33.0354 35.921 33.6256 36.0061L35.993 40.1065C36.1328 40.3486 36.3863 40.484 36.6471 40.484C36.7751 40.484 36.9049 40.4514 37.0236 40.3827C37.3845 40.1744 37.5082 39.7129 37.2998 39.352L34.9329 35.2525Z" fill="#595959"/>
<path d="M29.4745 25.7984C29.266 25.4375 28.8048 25.314 28.4438 25.5224C28.0829 25.7307 27.9593 26.1922 28.1677 26.553L28.4727 27.081C28.6125 27.3231 28.866 27.4584 29.1268 27.4584C29.2548 27.4584 29.3846 27.4257 29.5034 27.3571C29.8643 27.1487 29.9879 26.6873 29.7795 26.3265L29.4745 25.7984Z" fill="#595959"/>
<path d="M26.0812 29.4725L25.5531 29.1677C25.192 28.9592 24.7306 29.0829 24.5225 29.4438C24.3141 29.8048 24.4378 30.2662 24.7986 30.4745L25.3267 30.7794C25.4455 30.848 25.5752 30.8807 25.7032 30.8807C25.964 30.8807 26.2177 30.7453 26.3573 30.5032C26.5657 30.1424 26.442 29.6809 26.0812 29.4725Z" fill="#595959"/>
<path d="M25.2058 34.8008C25.2058 34.3841 24.868 34.0463 24.4513 34.0463H23.8415C23.4247 34.0463 23.087 34.3841 23.087 34.8008C23.087 35.2175 23.4248 35.5553 23.8415 35.5553H24.4513C24.868 35.5553 25.2058 35.2175 25.2058 34.8008Z" fill="#595959"/>
<path d="M25.3266 38.8222L24.7985 39.127C24.4377 39.3353 24.314 39.7969 24.5224 40.1577C24.6621 40.3998 24.9157 40.5351 25.1765 40.5351C25.3045 40.5351 25.4342 40.5025 25.553 40.4339L26.0811 40.129C26.4419 39.9207 26.5656 39.4592 26.3572 39.0983C26.1489 38.7374 25.6876 38.6138 25.3266 38.8222Z" fill="#595959"/>
<path d="M29.5034 42.2444C29.1423 42.0358 28.681 42.1597 28.4727 42.5205L28.1677 43.0485C27.9593 43.4094 28.0829 43.8709 28.4438 44.0792C28.5626 44.1478 28.6924 44.1805 28.8204 44.1805C29.0812 44.1805 29.3348 44.0451 29.4745 43.8031L29.7795 43.2751C29.9879 42.9143 29.8643 42.4528 29.5034 42.2444Z" fill="#595959"/>
<path d="M33.8008 43.3959C33.384 43.3959 33.0463 43.7337 33.0463 44.1504V44.7601C33.0463 45.1768 33.3841 45.5146 33.8008 45.5146C34.2176 45.5146 34.5553 45.1768 34.5553 44.7601V44.1504C34.5553 43.7337 34.2176 43.3959 33.8008 43.3959Z" fill="#595959"/>
<path d="M39.129 42.5205C38.9206 42.1596 38.4593 42.0359 38.0983 42.2443C37.7375 42.4526 37.6138 42.9141 37.8222 43.275L38.127 43.803C38.2668 44.0451 38.5204 44.1805 38.7812 44.1805C38.9092 44.1805 39.0389 44.1478 39.1577 44.0792C39.5186 43.8709 39.6423 43.4094 39.4339 43.0485L39.129 42.5205Z" fill="#595959"/>
<path d="M42.8031 39.1271L42.2751 38.8222C41.914 38.6137 41.4526 38.7375 41.2444 39.0983C41.036 39.4593 41.1598 39.9207 41.5206 40.129L42.0486 40.4339C42.1675 40.5025 42.2972 40.5352 42.4252 40.5352C42.6859 40.5352 42.9396 40.3998 43.0793 40.1577C43.2877 39.7969 43.164 39.3354 42.8031 39.1271Z" fill="#595959"/>
<path d="M43.7602 34.0463H43.1505C42.7337 34.0463 42.396 34.3841 42.396 34.8008C42.396 35.2175 42.7338 35.5553 43.1505 35.5553H43.7602C44.177 35.5553 44.5146 35.2175 44.5146 34.8008C44.5146 34.3841 44.177 34.0463 43.7602 34.0463Z" fill="#595959"/>
<path d="M41.8985 30.8807C42.0266 30.8807 42.1562 30.848 42.2751 30.7794L42.8031 30.4745C43.164 30.2662 43.2877 29.8047 43.0793 29.4438C42.871 29.0829 42.4096 28.9593 42.0486 29.1677L41.5206 29.4725C41.1598 29.6808 41.036 30.1424 41.2444 30.5032C41.3841 30.7453 41.6378 30.8807 41.8985 30.8807Z" fill="#595959"/>
<path d="M39.1577 25.5224C38.7967 25.314 38.3353 25.4377 38.127 25.7985L37.8222 26.3265C37.6138 26.6875 37.7375 27.1489 38.0983 27.3572C38.2172 27.4259 38.3469 27.4585 38.4749 27.4585C38.7356 27.4585 38.9894 27.3231 39.129 27.081L39.4339 26.553C39.6423 26.1921 39.5186 25.7307 39.1577 25.5224Z" fill="#595959"/>
</g>
<defs>
<clipPath id="clip0_13_83">
<rect width="50" height="50" fill="white" transform="translate(15 16)"/>
</clipPath>
</defs>
</svg>
