<svg width="51" height="52" viewBox="0 0 51 52" fill="none" xmlns="http://www.w3.org/2000/svg">
<path d="M46.7767 5.64643H45.7706V4.46108C45.7706 3.23589 44.7745 2.23979 43.5593 2.23979H4.22354C3.0083 2.23979 2.01221 3.23589 2.01221 4.46108V44.5539C2.01221 45.7791 3.0083 46.7751 4.22354 46.7751H5.22959V47.9505C5.22959 49.1757 6.22568 50.1718 7.44092 50.1718H46.7767C47.9919 50.1718 48.988 49.1757 48.988 47.9505V7.85776C48.988 6.63257 47.9919 5.64643 46.7767 5.64643ZM3.04814 4.46108C3.04814 3.81362 3.57607 3.27573 4.22354 3.27573H43.5593C44.2067 3.27573 44.7347 3.80366 44.7347 4.46108V6.68237H3.04814V4.46108ZM4.22354 45.7392C3.57607 45.7392 3.04814 45.2113 3.04814 44.5539V7.71831H44.7446V44.5539C44.7446 45.2113 44.2167 45.7392 43.5692 45.7392H4.22354ZM47.952 47.9505C47.952 48.598 47.4241 49.1359 46.7767 49.1359H7.44092C6.79346 49.1359 6.26553 48.608 6.26553 47.9505V46.7751H43.5692C44.7845 46.7751 45.7806 45.7791 45.7806 44.5539V6.67241H46.7866C47.4341 6.67241 47.962 7.20034 47.962 7.85776V47.9505H47.952Z" fill="#231F20"/>
<path d="M47.9521 7.85776V47.9406C47.9521 48.588 47.4242 49.1259 46.7768 49.1259H7.44102C6.79355 49.1259 6.26562 48.598 6.26562 47.9406V46.7652H43.5693C44.7846 46.7652 45.7807 45.7691 45.7807 44.5439V6.67241H46.7867C47.4242 6.67241 47.9521 7.20034 47.9521 7.85776Z" fill="#BCCCDC"/>
<path d="M43.5592 3.28569H4.22349C3.57603 3.28569 3.0481 3.81362 3.0481 4.47104V6.68237H44.7446V4.46108C44.7346 3.81362 44.2167 3.28569 43.5592 3.28569ZM33.9868 5.64643C33.1202 5.62651 33.1202 4.34155 33.9868 4.32163C34.8534 4.33159 34.8534 5.62651 33.9868 5.64643ZM37.6225 5.64643C36.7559 5.63647 36.7559 4.34155 37.6225 4.32163C38.4891 4.33159 38.4891 5.62651 37.6225 5.64643ZM41.2583 5.64643C40.3917 5.63647 40.3917 4.34155 41.2583 4.32163C42.1348 4.33159 42.1348 5.62651 41.2583 5.64643Z" fill="#4B5D7B"/>
<path d="M3.0481 7.71831V44.5539C3.0481 45.2113 3.57603 45.7392 4.22349 45.7392H43.5592C44.2067 45.7392 44.7346 45.2113 44.7346 44.5539V7.71831H3.0481ZM32.6022 13.416H33.8374V12.1808C33.8374 11.2146 34.6243 10.4376 35.5905 10.4376C36.5567 10.4376 37.3336 11.2146 37.3336 12.1808V13.416H38.5688C39.535 13.416 40.312 14.2029 40.312 15.1691C40.312 16.1353 39.5251 16.9123 38.5688 16.9123H37.3336V18.1474C37.3336 19.1136 36.5467 19.8906 35.5905 19.8906C34.6243 19.8906 33.8374 19.1037 33.8374 18.1474V16.9123H32.6022C30.2913 16.8525 30.2913 13.4757 32.6022 13.416ZM5.22954 12.2107C5.22954 11.1449 6.09614 10.2783 7.16196 10.2783H23.6274C24.6932 10.2783 25.5598 11.1449 25.5598 12.2107V28.6761C25.5598 29.7419 24.6932 30.6085 23.6274 30.6085H7.152C6.08618 30.6085 5.21958 29.7419 5.21958 28.6761V12.2107H5.22954ZM42.354 38.2884H5.74751C5.08013 38.2785 5.06021 37.2724 5.74751 37.2525H42.3639C43.0213 37.2624 43.0512 38.2785 42.354 38.2884ZM42.354 34.3837H5.74751C5.08013 34.3738 5.05024 33.3677 5.74751 33.3478H42.3639C43.0213 33.3677 43.0512 34.3738 42.354 34.3837ZM42.354 30.489H28.8071C28.1297 30.479 28.1198 29.473 28.8071 29.4531H42.354C43.0313 29.473 43.0413 30.479 42.354 30.489ZM42.354 26.674H28.8071C28.1297 26.664 28.1198 25.658 28.8071 25.638H42.354C43.0313 25.648 43.0413 26.6541 42.354 26.674ZM42.354 22.849H28.8071C28.1297 22.839 28.1198 21.833 28.8071 21.813H42.354C43.0313 21.833 43.0413 22.839 42.354 22.849Z" fill="#BCCCDC"/>
<path d="M41.9257 4.97905C41.9058 5.84565 40.6208 5.84565 40.6108 4.97905C40.6208 4.11245 41.9058 4.11245 41.9257 4.97905Z" fill="#231F20"/>
<path d="M38.2799 4.97905C38.26 5.84565 36.975 5.84565 36.9651 4.97905C36.975 4.11245 38.27 4.11245 38.2799 4.97905Z" fill="#231F20"/>
<path d="M34.6442 4.97905C34.6243 5.84565 33.3393 5.84565 33.3293 4.97905C33.3393 4.11245 34.6243 4.11245 34.6442 4.97905Z" fill="#231F20"/>
<path d="M38.5688 13.416H37.3337V12.1808C37.3337 11.2146 36.5468 10.4376 35.5905 10.4376C34.6243 10.4376 33.8374 11.2146 33.8374 12.1808V13.416H32.6022C31.636 13.416 30.8491 14.2029 30.8491 15.1691C30.8491 16.1353 31.636 16.9122 32.6022 16.9122H33.8374V18.1474C33.8374 19.1136 34.6243 19.8906 35.5905 19.8906C36.5567 19.8906 37.3337 19.1037 37.3337 18.1474V16.9122H38.5688C40.8698 16.8525 40.8698 13.4757 38.5688 13.416ZM38.5688 15.8763H36.8157C36.5269 15.8763 36.2978 16.1054 36.2978 16.3943V18.1474C36.2778 19.0837 34.8833 19.0837 34.8634 18.1474V16.3943C34.8634 16.1054 34.6343 15.8763 34.3454 15.8763H32.6022C32.2038 15.8763 31.8851 15.5576 31.8851 15.1591C31.8851 14.7706 32.2038 14.4419 32.6022 14.4419C35.2519 14.422 34.8335 14.8105 34.8634 12.1808C34.8634 11.7923 35.1821 11.4636 35.5806 11.4636C35.969 11.4636 36.2978 11.7824 36.2978 12.1808V13.924C36.2978 14.2128 36.5269 14.4419 36.8157 14.4419H38.5688C39.5052 14.4619 39.5052 15.8564 38.5688 15.8763Z" fill="#231F20"/>
<path d="M39.276 15.1691C39.276 15.5576 38.9572 15.8863 38.5588 15.8863C35.8992 15.9062 36.3176 15.5177 36.2877 18.1574C36.2877 18.5459 35.9689 18.8746 35.5705 18.8746C35.1721 18.8746 34.8533 18.5558 34.8533 18.1574C34.8334 15.5078 35.2318 15.9162 32.5922 15.8863C32.1938 15.8863 31.875 15.5675 31.875 15.1691C31.875 14.7806 32.1938 14.4519 32.5922 14.4519C35.2418 14.432 34.8234 14.8205 34.8533 12.1908C34.8533 11.8023 35.1721 11.4736 35.5705 11.4736C35.959 11.4736 36.2877 11.7923 36.2877 12.1908C36.3076 14.8503 35.9191 14.422 38.5588 14.4519C38.9572 14.4419 39.276 14.7707 39.276 15.1691Z" fill="#4B5D7B"/>
<path d="M23.6275 10.2882H7.15215C6.08633 10.2882 5.21973 11.1548 5.21973 12.2206V28.6861C5.21973 29.7519 6.08633 30.6185 7.15215 30.6185H23.6176C24.6834 30.6185 25.55 29.7519 25.55 28.6861V12.2107C25.55 11.1449 24.6934 10.2882 23.6275 10.2882ZM9.17422 29.5726C9.26387 29.0945 9.46309 26.4847 9.54277 25.8273C9.49297 25.0005 10.3695 24.5324 11.027 24.2535C12.302 25.4587 14.075 26.1162 15.8381 26.0564C15.8281 26.6939 15.8281 27.3314 15.8281 27.9589C15.8281 28.2179 15.848 28.5267 16.0672 28.6662C16.2564 28.7857 16.5154 28.716 16.7445 28.6761C17.0334 28.6263 17.3322 28.6263 17.6211 28.6761C17.8502 28.7259 18.1191 28.7956 18.3184 28.6562C18.5275 28.5167 18.5475 28.2279 18.5475 27.9689C18.5475 27.0525 18.5375 26.1361 18.5375 25.2097C18.9559 24.9009 19.3742 24.5822 19.7826 24.2734C20.2807 24.4925 20.8285 24.7515 21.0676 25.2396C21.1971 25.4986 21.227 25.8074 21.2568 26.0962C21.3664 27.2517 21.476 28.4072 21.5855 29.5626H9.17422V29.5726ZM12.7203 17.5597C13.1885 17.0617 13.9754 17.1613 14.5531 16.8226C15.5193 17.3904 16.9338 17.6494 17.9996 17.988C18.0395 19.7312 16.3162 22.3808 14.3738 21.2353C13.2582 20.5779 12.5908 19.2531 12.5908 17.9681C12.5908 17.8187 12.6307 17.6792 12.7203 17.5597ZM12.043 16.7728C12.023 16.7927 11.9932 16.8126 11.9732 16.8326C11.9234 15.7767 12.6904 14.7208 13.6168 14.5913C13.7264 14.5615 13.826 14.5017 13.9057 14.4121C16.0373 11.8421 19.2248 14.2726 18.7666 17.1513C17.5314 16.713 16.1568 16.5636 15.0113 15.8863C14.8121 15.7568 14.5631 15.6372 14.334 15.7767C13.6168 16.2349 12.6705 16.1652 12.043 16.7728ZM16.625 22.839C15.858 23.1677 14.8221 23.1677 14.085 22.8091C14.1049 22.6497 14.1348 22.4705 14.1547 22.3011C14.9117 22.6497 15.8082 22.6697 16.5553 22.2613L16.625 22.839ZM15.3898 24.1339C16.3162 24.124 17.1629 23.855 17.8303 23.2872C18.0992 23.2872 18.5275 23.6458 18.8164 23.7554C16.9238 25.4288 13.9057 25.379 12.0031 23.7255L12.8398 23.2773C12.8797 23.2574 12.9195 23.2673 12.9594 23.3072C13.6268 23.8849 14.5232 24.1339 15.3898 24.1339ZM17.5215 25.7078V27.6103C17.3023 27.6003 17.0932 27.5904 16.874 27.6103V25.8871C17.0932 25.8472 17.3123 25.7775 17.5215 25.7078ZM24.5141 28.6861C24.5141 29.1742 24.1156 29.5826 23.6176 29.5826H22.6314L22.243 25.5484C22.1633 24.8013 21.6951 24.1339 20.9879 23.7554L19.932 23.1976L19.4639 22.9486C18.8861 22.6896 18.2686 22.1119 17.5912 22.3011L17.4916 21.554C17.9797 21.0958 18.3682 20.538 18.6371 19.9205C20.1811 18.1972 20.2209 15.2388 18.6869 13.5355C17.2326 11.872 14.6129 11.9318 13.2084 13.6451C10.5588 14.432 10.3596 17.6792 11.9234 19.8806C12.2023 20.5679 12.6406 21.1656 13.1984 21.6636C13.1686 21.833 13.1387 22.0421 13.1088 22.2912C12.8598 22.2413 12.5908 22.2613 12.3518 22.3908L10.8775 23.1777L9.77187 23.7654C9.06465 24.1439 8.59648 24.8113 8.5168 25.5683L8.12832 29.5925H7.14219C6.64414 29.5925 6.2457 29.1941 6.2457 28.696V12.2107C6.2457 11.7126 6.64414 11.3142 7.14219 11.3142H23.6076C24.0957 11.3142 24.5041 11.7126 24.5041 12.2107V28.6861H24.5141Z" fill="#231F20"/>
<path d="M16.625 22.839C15.858 23.1677 14.8221 23.1677 14.085 22.8091C14.1049 22.6498 14.1348 22.4705 14.1547 22.3011C14.9117 22.6498 15.8082 22.6697 16.5553 22.2613L16.625 22.839Z" fill="#F6C9AF"/>
<path d="M17.9895 17.988C17.9695 19.3826 17.1826 20.8667 15.8678 21.4345C14.533 21.9027 13.3078 20.558 12.8496 19.4224C12.6803 18.8347 12.3117 17.9482 12.8197 17.4501C13.3078 17.0716 14.0051 17.1314 14.543 16.8226C15.5191 17.3904 16.9336 17.6494 17.9895 17.988Z" fill="#F6C9AF"/>
<path d="M18.7664 17.1513C17.5313 16.713 16.1566 16.5636 15.0111 15.8863C14.8119 15.7568 14.5629 15.6372 14.3338 15.7767C13.5967 16.2449 12.6006 16.1652 11.983 16.8326C11.9332 15.7767 12.7002 14.7208 13.6266 14.5913C13.7361 14.5615 13.8357 14.5017 13.9154 14.4121C16.0371 11.8421 19.2246 14.2726 18.7664 17.1513Z" fill="#383B7B"/>
<path d="M17.5215 25.7078V27.6103C17.3023 27.6003 17.0932 27.5904 16.874 27.6103V25.8871C17.0932 25.8472 17.3123 25.7775 17.5215 25.7078Z" fill="#4B5D7B"/>
<path d="M18.8262 23.7654C16.9336 25.4388 13.9155 25.389 12.0129 23.7355L12.8497 23.2872C12.8895 23.2673 12.9293 23.2773 12.9692 23.3171C13.6366 23.8849 14.5331 24.1439 15.3997 24.1439C16.326 24.1339 17.1727 23.865 17.8401 23.2972C18.109 23.2972 18.5274 23.6458 18.8262 23.7654Z" fill="#4B5D7B"/>
<path d="M24.514 12.2107V28.6761C24.514 29.1642 24.1155 29.5726 23.6175 29.5726H22.6313L22.2429 25.5384C22.1632 24.7914 21.695 24.124 20.9878 23.7455L19.9319 23.1876L19.4638 22.9386C18.886 22.6796 18.2685 22.1019 17.5911 22.2912L17.4915 21.5441C17.9796 21.0859 18.3681 20.5281 18.637 19.9105C20.181 18.1873 20.2208 15.2289 18.6868 13.5255C17.2325 11.8621 14.6128 11.9218 13.2083 13.6351C10.5587 14.422 10.3595 17.6693 11.9233 19.8707C12.2022 20.558 12.6405 21.1556 13.1983 21.6537C13.1685 21.823 13.1386 22.0322 13.1087 22.2812C12.8597 22.2314 12.5907 22.2513 12.3517 22.3808L10.8774 23.1677L9.77178 23.7554C9.06455 24.1339 8.59639 24.8013 8.5167 25.5583L8.12822 29.5826H7.14209C6.64404 29.5826 6.24561 29.1841 6.24561 28.6861V12.2107C6.24561 11.7126 6.64404 11.3142 7.14209 11.3142H23.6075C24.1155 11.3142 24.514 11.7126 24.514 12.2107Z" fill="#4B5D7B"/>
<path d="M21.5954 29.5726H9.17407C9.26372 29.0945 9.46294 26.4847 9.54263 25.8273C9.49282 25.0005 10.3694 24.5324 11.0268 24.2535C12.3018 25.4587 14.0749 26.1162 15.8379 26.0564C15.828 26.6939 15.828 27.3314 15.828 27.9589C15.828 28.2179 15.8479 28.5267 16.067 28.6662C16.2563 28.7857 16.5153 28.716 16.7444 28.6761C17.0333 28.6263 17.3321 28.6263 17.6209 28.6761C17.85 28.7259 18.119 28.7957 18.3182 28.6562C18.5274 28.5167 18.5473 28.2279 18.5473 27.9689C18.5473 27.0525 18.5374 26.1361 18.5374 25.2097C18.9557 24.9009 19.3741 24.5822 19.7825 24.2734C20.2805 24.4925 20.8284 24.7515 21.0674 25.2396C21.1969 25.4986 21.2268 25.8074 21.2567 26.0962C21.3762 27.2617 21.4858 28.4171 21.5954 29.5726Z" fill="#D4D8F3"/>
<path d="M42.8721 22.331C42.8721 22.6199 42.643 22.849 42.3542 22.849H28.8073C28.5184 22.849 28.2893 22.6199 28.2893 22.331C28.2893 22.0421 28.5184 21.813 28.8073 21.813H42.3542C42.643 21.813 42.8721 22.0521 42.8721 22.331Z" fill="#231F20"/>
<path d="M42.8721 26.156C42.8721 26.4449 42.643 26.674 42.3542 26.674H28.8073C28.5184 26.674 28.2893 26.4449 28.2893 26.156C28.2893 25.8671 28.5184 25.638 28.8073 25.638H42.3542C42.643 25.638 42.8721 25.8671 42.8721 26.156Z" fill="#231F20"/>
<path d="M42.8721 29.971C42.8721 30.2599 42.643 30.489 42.3542 30.489H28.8073C28.5184 30.489 28.2893 30.2599 28.2893 29.971C28.2893 29.6822 28.5184 29.4531 28.8073 29.4531H42.3542C42.643 29.4531 42.8721 29.6921 42.8721 29.971Z" fill="#231F20"/>
<path d="M42.8721 33.8757C42.8721 34.1646 42.643 34.3937 42.3541 34.3937H5.74764C5.08026 34.3837 5.05038 33.3777 5.74764 33.3578H42.364C42.643 33.3578 42.8721 33.5869 42.8721 33.8757Z" fill="#231F20"/>
<path d="M42.872 37.7705C42.872 38.0593 42.6429 38.2884 42.354 38.2884H5.74754C5.08015 38.2785 5.06023 37.2724 5.74754 37.2525H42.3639C42.6428 37.2525 42.872 37.4916 42.872 37.7705Z" fill="#231F20"/>
</svg>
