<svg width="64" height="64" viewBox="0 0 64 64" fill="none" xmlns="http://www.w3.org/2000/svg">
<path opacity="0.1" d="M54.9034 48.1275H54.735V41.699C54.735 40.604 53.8475 39.7165 52.7537 39.7165H49.9395V12.7226C49.9395 11.3419 48.8202 10.2226 47.4395 10.2226H16.5605C15.1797 10.2226 14.0605 11.3419 14.0605 12.7226V18.0699H9.32812C8.63775 18.0699 8.07812 18.6295 8.07812 19.3199V30.7116C8.07812 31.402 8.63775 31.9616 9.32812 31.9616H14.0605V58.2467C14.0605 59.6275 15.1797 60.7467 16.5605 60.7467H38.7425V61.5952C38.7425 61.9077 38.9963 62.1615 39.3088 62.1615H52.7537C53.8475 62.1615 54.735 61.274 54.735 60.179V53.751H54.9034C55.1869 53.751 55.4168 53.5211 55.4168 53.2376V48.6409C55.4168 48.3574 55.1869 48.1275 54.9034 48.1275Z" fill="#4B5D7B"/>
<path d="M49.9401 9.72238V55.2474C49.9401 56.6274 48.8201 57.7474 47.4401 57.7474H16.5601C15.1801 57.7474 14.0601 56.6274 14.0601 55.2474V9.72238C14.0601 8.34238 15.1801 7.22238 16.5601 7.22238H47.4401C48.8201 7.22238 49.9401 8.34238 49.9401 9.72238Z" fill="#5B6E91"/>
<path d="M21.9701 19.3199V30.7111C21.9701 31.4024 21.4101 31.9611 20.7201 31.9611H14.0601V18.0699H20.7201C21.4101 18.0699 21.9701 18.6299 21.9701 19.3199Z" fill="#BCCCDC"/>
<path d="M46.7387 11.6274V53.3424C46.7387 54.0324 46.1787 54.5924 45.4887 54.5924H18.5112C17.8212 54.5924 17.2612 54.0324 17.2612 53.3424V11.6274C17.2612 10.9374 17.8212 10.3774 18.5112 10.3774H45.4887C46.1787 10.3774 46.7387 10.9374 46.7387 11.6274Z" fill="white"/>
<path d="M21.97 19.3199V30.7111C21.97 31.4024 21.41 31.9611 20.72 31.9611H17.2612V18.0699H20.72C21.41 18.0699 21.97 18.6299 21.97 19.3199Z" fill="#BCCCDC"/>
<path d="M41.4226 10.377V13.0632C41.4226 13.7532 40.8639 14.3132 40.1726 14.3132H23.8276C23.1364 14.3132 22.5776 13.7532 22.5776 13.0632V10.377H41.4226Z" fill="#BCCCDC"/>
<path d="M35.4423 5.87663C35.4261 3.989 33.8915 2.4635 32 2.4635C30.1085 2.4635 28.5739 3.989 28.5578 5.87675H23.8271C23.1368 5.87675 22.5771 6.43638 22.5771 7.12675V10.063C22.5771 10.7534 23.1368 11.313 23.8271 11.313H40.1728C40.8631 11.313 41.4228 10.7534 41.4228 10.063V7.12675C41.4228 6.43638 40.8631 5.87675 40.1728 5.87675L35.4423 5.87663Z" fill="#BCCCDC"/>
<path d="M39.6729 11.3129V9.759C39.6729 9.41388 39.393 9.134 39.0479 9.134H24.9524C24.6073 9.134 24.3274 9.41388 24.3274 9.759V11.3129H39.6729Z" fill="#BCCCDC"/>
<path d="M32 6.86888C32.6213 6.86888 33.125 6.3652 33.125 5.74388C33.125 5.12256 32.6213 4.61888 32 4.61888C31.3787 4.61888 30.875 5.12256 30.875 5.74388C30.875 6.3652 31.3787 6.86888 32 6.86888Z" fill="#5B6E91"/>
<path d="M43.9286 19.2096L42.3086 17.5896C42.0645 17.3455 41.6688 17.3455 41.4247 17.5896C41.1806 17.8336 41.1806 18.2294 41.4247 18.4734L41.9778 19.0265H36.4395C35.2235 19.0265 34.2343 20.0157 34.2343 21.2317V28.4976C34.2343 29.0242 33.8058 29.4527 33.2792 29.4527H29.1082C27.8922 29.4527 26.9031 30.442 26.9031 31.658V40.9502C26.9031 41.2955 27.183 41.5752 27.5281 41.5752C27.8732 41.5752 28.1531 41.2955 28.1531 40.9502V31.658C28.1531 31.1312 28.5816 30.7027 29.1082 30.7027H33.2792C34.4952 30.7027 35.4843 29.7136 35.4843 28.4976V21.2317C35.4843 20.705 35.9128 20.2765 36.4395 20.2765H41.9778L41.4247 20.8296C41.1806 21.0736 41.1806 21.4694 41.4247 21.7134C41.5468 21.8355 41.7067 21.8965 41.8667 21.8965C42.0267 21.8965 42.1866 21.8355 42.3087 21.7134L43.9287 20.0934C44.1726 19.8494 44.1726 19.4536 43.9286 19.2096Z" fill="#BCCCDC"/>
<path d="M26.5759 23.1616C25.3698 23.1616 24.3884 24.143 24.3884 25.3491C24.3884 26.5552 25.3698 27.5366 26.5759 27.5366C27.7821 27.5366 28.7634 26.5552 28.7634 25.3491C28.7634 24.143 27.7821 23.1616 26.5759 23.1616ZM26.5759 26.2866C26.0589 26.2866 25.6384 25.8661 25.6384 25.3491C25.6384 24.8321 26.0589 24.4116 26.5759 24.4116C27.0929 24.4116 27.5134 24.8321 27.5134 25.3491C27.5134 25.8661 27.0929 26.2866 26.5759 26.2866Z" fill="#5B6E91"/>
<path d="M39.4412 26.0327C38.235 26.0327 37.2537 27.0141 37.2537 28.2202C37.2537 29.4264 38.235 30.4077 39.4412 30.4077C40.6473 30.4077 41.6287 29.4264 41.6287 28.2202C41.6287 27.0141 40.6474 26.0327 39.4412 26.0327ZM39.4412 29.1577C38.9242 29.1577 38.5037 28.7372 38.5037 28.2202C38.5037 27.7032 38.9242 27.2827 39.4412 27.2827C39.9582 27.2827 40.3787 27.7032 40.3787 28.2202C40.3787 28.7372 39.9582 29.1577 39.4412 29.1577Z" fill="#5B6E91"/>
<path d="M31.9494 21.1437C32.0715 21.2659 32.2314 21.3269 32.3914 21.3269C32.5514 21.3269 32.7112 21.2659 32.8334 21.1437C33.0775 20.8997 33.0775 20.504 32.8334 20.26L32.1729 19.5995L32.8334 18.939C33.0775 18.695 33.0775 18.2992 32.8334 18.0552C32.5892 17.8111 32.1936 17.8111 31.9495 18.0552L31.2891 18.7156L30.6287 18.0552C30.3846 17.8111 29.989 17.8111 29.7449 18.0552C29.5007 18.2992 29.5007 18.695 29.7449 18.939L30.4054 19.5995L29.7449 20.26C29.5007 20.504 29.5007 20.8997 29.7449 21.1437C29.867 21.2659 30.0269 21.3269 30.1869 21.3269C30.3469 21.3269 30.5067 21.2659 30.6289 21.1437L31.2892 20.4834L31.9494 21.1437Z" fill="#5B6E91"/>
<path d="M33.3885 34.374C33.1444 34.1299 32.7488 34.1299 32.5047 34.374L31.8443 35.0344L31.1839 34.374C30.9398 34.1299 30.5442 34.1299 30.3 34.374C30.0559 34.618 30.0559 35.0137 30.3 35.2577L30.9605 35.9182L30.3 36.5787C30.0559 36.8227 30.0559 37.2185 30.3 37.4625C30.4222 37.5846 30.582 37.6456 30.742 37.6456C30.902 37.6456 31.0619 37.5846 31.184 37.4625L31.8444 36.8021L32.5048 37.4625C32.6269 37.5846 32.7868 37.6456 32.9468 37.6456C33.1068 37.6456 33.2667 37.5846 33.3888 37.4625C33.6329 37.2185 33.6329 36.8227 33.3888 36.5787L32.7283 35.9182L33.3888 35.2577C33.6325 35.0137 33.6325 34.618 33.3885 34.374Z" fill="#5B6E91"/>
<path d="M9.32813 15.0699H20.7199C21.4103 15.0699 21.9699 15.6295 21.9699 16.3199V27.7116C21.9699 28.402 21.4103 28.9616 20.7199 28.9616H9.32813C8.63775 28.9616 8.07812 28.402 8.07812 27.7116V16.3199C8.07812 15.6295 8.63775 15.0699 9.32813 15.0699Z" fill="#5B6E91"/>
<path d="M18.6853 19.5931H16.6123C16.2672 19.5931 15.9873 19.3132 15.9873 18.9681C15.9873 18.623 16.2672 18.3431 16.6123 18.3431H18.6852C19.0303 18.3431 19.3102 18.623 19.3102 18.9681C19.3102 19.3132 19.0304 19.5931 18.6853 19.5931Z" fill="white"/>
<path d="M18.6854 23.1407H11.3625C11.0174 23.1407 10.7375 22.8609 10.7375 22.5157C10.7375 22.1706 11.0174 21.8907 11.3625 21.8907H18.6854C19.0305 21.8907 19.3104 22.1706 19.3104 22.5157C19.3104 22.8609 19.0305 23.1407 18.6854 23.1407Z" fill="white"/>
<path d="M18.6854 25.6885H11.3625C11.0174 25.6885 10.7375 25.4086 10.7375 25.0635C10.7375 24.7184 11.0174 24.4385 11.3625 24.4385H18.6854C19.0305 24.4385 19.3104 24.7184 19.3104 25.0635C19.3104 25.4086 19.0305 25.6885 18.6854 25.6885Z" fill="white"/>
<path d="M13.3147 19.5931C13.6599 19.5931 13.9397 19.3133 13.9397 18.9681C13.9397 18.6229 13.6599 18.3431 13.3147 18.3431C12.9695 18.3431 12.6897 18.6229 12.6897 18.9681C12.6897 19.3133 12.9695 19.5931 13.3147 19.5931Z" fill="#BCCCDC"/>
<path d="M11.3625 19.5931C11.7077 19.5931 11.9875 19.3133 11.9875 18.9681C11.9875 18.6229 11.7077 18.3431 11.3625 18.3431C11.0174 18.3431 10.7375 18.6229 10.7375 18.9681C10.7375 19.3133 11.0174 19.5931 11.3625 19.5931Z" fill="#BCCCDC"/>
<path d="M25.7221 50.2843H21.4211C21.076 50.2843 20.7961 50.5641 20.7961 50.9093C20.7961 51.2544 21.076 51.5343 21.4211 51.5343H25.7221C26.0673 51.5343 26.3471 51.2544 26.3471 50.9093C26.3471 50.5641 26.0673 50.2843 25.7221 50.2843Z" fill="#5B6E91"/>
<path d="M25.7221 47.7366H21.4211C21.076 47.7366 20.7961 48.0165 20.7961 48.3616C20.7961 48.7068 21.076 48.9866 21.4211 48.9866H25.7221C26.0673 48.9866 26.3471 48.7068 26.3471 48.3616C26.3471 48.0165 26.0673 47.7366 25.7221 47.7366Z" fill="#5B6E91"/>
<path d="M23.2221 44.6889H21.4211C21.076 44.6889 20.7961 44.9687 20.7961 45.3139C20.7961 45.659 21.076 45.9389 21.4211 45.9389H23.2221C23.5673 45.9389 23.8471 45.659 23.8471 45.3139C23.8471 44.9687 23.5673 44.6889 23.2221 44.6889Z" fill="#5B6E91"/>
<path d="M33.9946 50.2842H29.6936C29.3485 50.2842 29.0686 50.5641 29.0686 50.9092C29.0686 51.2544 29.3485 51.5342 29.6936 51.5342H33.9946C34.3397 51.5342 34.6196 51.2544 34.6196 50.9092C34.6196 50.5641 34.3397 50.2842 33.9946 50.2842Z" fill="#5B6E91"/>
<path d="M33.9946 47.7366H29.6936C29.3485 47.7366 29.0686 48.0165 29.0686 48.3616C29.0686 48.7068 29.3485 48.9866 29.6936 48.9866H33.9946C34.3397 48.9866 34.6196 48.7068 34.6196 48.3616C34.6196 48.0165 34.3397 47.7366 33.9946 47.7366Z" fill="#5B6E91"/>
<path d="M31.4946 44.6889H29.6936C29.3485 44.6889 29.0686 44.9687 29.0686 45.3139C29.0686 45.659 29.3485 45.9389 29.6936 45.9389H31.4946C31.8397 45.9389 32.1196 45.659 32.1196 45.3139C32.1196 44.9687 31.8397 44.6889 31.4946 44.6889Z" fill="#5B6E91"/>
<path d="M54.7352 38.699V57.179C54.7352 58.274 53.8477 59.1615 52.7539 59.1615H39.3089C38.9964 59.1615 38.7427 58.9077 38.7427 58.5952V37.2827C38.7427 36.9702 38.9964 36.7165 39.3089 36.7165H52.7539C53.8477 36.7165 54.7352 37.604 54.7352 38.699Z" fill="#BCCCDC"/>
<path d="M54.735 48.1277V53.7515H48.4825C47.3487 53.7515 46.4287 52.8315 46.4287 51.6977V50.1815C46.4287 49.0465 47.3487 48.1277 48.4825 48.1277H54.735Z" fill="#BCCCDC"/>
<path d="M38.7422 40.2665H54.7354V47.394H38.7422V40.2665Z" fill="#5B6E91"/>
<path d="M54.9033 50.751H48.4825C47.3482 50.751 46.4287 49.8315 46.4287 48.6972V47.1811C46.4287 46.0469 47.3482 45.1274 48.4825 45.1274H54.9033C55.1868 45.1274 55.4167 45.3572 55.4167 45.6407V50.2375C55.4167 50.5211 55.1868 50.751 54.9033 50.751Z" fill="#5B6E91"/>
<path d="M49.2476 48.6894C49.6618 48.6894 49.9976 48.3536 49.9976 47.9394C49.9976 47.5251 49.6618 47.1894 49.2476 47.1894C48.8333 47.1894 48.4976 47.5251 48.4976 47.9394C48.4976 48.3536 48.8333 48.6894 49.2476 48.6894Z" fill="#BCCCDC"/>
<path d="M43.4868 53.4024H41.6858C41.3407 53.4024 41.0608 53.6822 41.0608 54.0274C41.0608 54.3725 41.3407 54.6524 41.6858 54.6524H43.4868C43.8319 54.6524 44.1118 54.3725 44.1118 54.0274C44.1118 53.6822 43.8319 53.4024 43.4868 53.4024Z" fill="#BCCCDC"/>
<path d="M43.4868 55.5285H41.6858C41.3407 55.5285 41.0608 55.8084 41.0608 56.1535C41.0608 56.4986 41.3407 56.7785 41.6858 56.7785H43.4868C43.8319 56.7785 44.1118 56.4986 44.1118 56.1535C44.1118 55.8084 43.8319 55.5285 43.4868 55.5285Z" fill="#BCCCDC"/>
<path d="M55.3605 44.5991V38.6994C55.3605 37.2619 54.191 36.0924 52.7535 36.0924H50.5646V9.72263C50.5646 7.9995 49.1628 6.59763 47.4396 6.59763H41.9706C41.7416 5.82075 41.023 5.25163 40.1729 5.25163H36.0145C35.699 3.321 34.013 1.8385 32 1.8385C29.987 1.8385 28.301 3.321 27.9856 5.25175H23.8272C22.9771 5.25175 22.2585 5.82075 22.0295 6.59775H16.5605C14.8374 6.59775 13.4355 7.99963 13.4355 9.72275V14.445H9.32812C8.29425 14.445 7.45312 15.2861 7.45312 16.32V27.7117C7.45312 28.7456 8.29425 29.5867 9.32812 29.5867H20.7199C21.7537 29.5867 22.5949 28.7456 22.5949 27.7117V16.32C22.5949 15.2861 21.7537 14.445 20.7199 14.445H14.6854V9.72263C14.6854 8.68875 15.5265 7.84763 16.5604 7.84763H21.9521V10.063C21.9521 11.0969 22.7933 11.938 23.8271 11.938H40.1727C41.2066 11.938 42.0477 11.0969 42.0477 10.063V7.84763H47.4395C48.4734 7.84763 49.3145 8.68875 49.3145 9.72263V36.0922H45.373C45.0279 36.0922 44.748 36.372 44.748 36.7172C44.748 37.0625 45.0279 37.3422 45.373 37.3422H52.7534C53.5016 37.3422 54.1104 37.951 54.1104 38.6992V44.5025H48.4825C47.0055 44.5025 45.8037 45.7041 45.8037 47.1812V48.6974C45.8037 50.1744 47.0054 51.3761 48.4825 51.3761H54.1105V57.1795C54.1105 57.9277 53.5018 58.5365 52.7535 58.5365H39.367V37.3422H41.8262C42.1714 37.3422 42.4512 37.0625 42.4512 36.7172C42.4512 36.372 42.1714 36.0922 41.8262 36.0922H39.3083C38.6514 36.0922 38.1169 36.6266 38.1169 37.2835V57.1217H16.5604C15.5265 57.1217 14.6854 56.2806 14.6854 55.2467V32.441C14.6854 32.0958 14.4055 31.816 14.0604 31.816C13.7153 31.816 13.4354 32.0958 13.4354 32.441V55.2467C13.4354 56.9699 14.8373 58.3717 16.5604 58.3717H38.117V58.5951C38.117 59.252 38.6514 59.7864 39.3084 59.7864H52.7535C54.191 59.7864 55.3605 58.6169 55.3605 57.1794V51.2795C55.7611 51.103 56.0419 50.7027 56.0419 50.2376V45.641C56.0417 45.1759 55.7611 44.7755 55.3605 44.5991ZM21.3449 16.3199V27.7116C21.3449 28.0562 21.0645 28.3366 20.7199 28.3366H9.32812C8.9835 28.3366 8.70312 28.0562 8.70312 27.7116V16.3199C8.70312 15.9753 8.9835 15.6949 9.32812 15.6949H20.7199C21.0645 15.6949 21.3449 15.9753 21.3449 16.3199ZM40.7977 10.063C40.7977 10.4076 40.5174 10.688 40.1727 10.688H23.8272C23.4826 10.688 23.2022 10.4076 23.2022 10.063V7.12675C23.2022 6.78213 23.4826 6.50175 23.8272 6.50175H28.5579C28.901 6.50175 29.18 6.22513 29.1829 5.88213C29.1959 4.34175 30.4598 3.0885 32.0001 3.0885C33.5405 3.0885 34.8043 4.34163 34.8174 5.88213C34.8202 6.22513 35.0993 6.50175 35.4424 6.50175H40.173C40.5176 6.50175 40.798 6.78213 40.798 7.12675V10.063H40.7977ZM47.0537 48.6974V47.1812C47.0537 46.3934 47.6946 45.7525 48.4825 45.7525H54.7919V50.126H48.4825C47.6947 50.1261 47.0537 49.4852 47.0537 48.6974Z" fill="#4B5D7B"/>
</svg>
