<svg width="79" height="79" viewBox="0 0 79 79" fill="none" xmlns="http://www.w3.org/2000/svg">
<circle cx="39.5" cy="39.5" r="39.5" fill="white"/>
<g clip-path="url(#clip0_13_52)">
<path d="M23.4667 21.6167H55.5333C56.5551 21.6167 57.3833 22.4449 57.3833 23.4667V27.7833H21.6167V23.4667C21.6167 22.4449 22.4449 21.6167 23.4667 21.6167Z" fill="#5B6E91"/>
<path d="M55.5333 21.6167H53.6833C54.7051 21.6167 55.5333 22.4449 55.5333 23.4667V27.7833H57.3833V23.4667C57.3833 22.4449 56.5551 21.6167 55.5333 21.6167Z" fill="#4B5D7B"/>
<path d="M21.6167 27.7833H57.3833V55.5333C57.3833 56.5551 56.5551 57.3833 55.5333 57.3833H23.4667C22.4449 57.3833 21.6167 56.5551 21.6167 55.5333V27.7833Z" fill="#F5F5F5"/>
<path d="M55.5333 27.7833V55.5333C55.5333 56.5551 54.7051 57.3833 53.6833 57.3833H55.5333C56.5551 57.3833 57.3833 56.5551 57.3833 55.5333V27.7833H55.5333Z" fill="#CFD8DC"/>
<path d="M32.7167 38.8833L29.375 41.2341C29.1871 41.3681 28.9402 41.3861 28.7349 41.2807C28.5297 41.1753 28.4004 40.9641 28.4 40.7333V38.8833H27.1667C26.4864 38.8813 25.9354 38.3303 25.9333 37.65V31.4833C25.9354 30.803 26.4864 30.252 27.1667 30.25H37.0333C37.7136 30.252 38.2646 30.803 38.2667 31.4833V37.65C38.2646 38.3303 37.7136 38.8813 37.0333 38.8833H32.7167Z" fill="#5B6E91"/>
<path d="M37.0333 30.25H35.1833C35.8636 30.252 36.4146 30.803 36.4167 31.4833V37.65C36.4146 38.3303 35.8636 38.8813 35.1833 38.8833H37.0333C37.7136 38.8813 38.2646 38.3303 38.2667 37.65V31.4833C38.2646 30.803 37.7136 30.252 37.0333 30.25Z" fill="#5B6E91"/>
<path d="M55.5333 21H23.4667C22.1044 21 21 22.1044 21 23.4667V55.5333C21 56.8956 22.1044 58 23.4667 58H55.5333C56.8956 58 58 56.8956 58 55.5333V23.4667C58 22.1044 56.8956 21 55.5333 21ZM22.2333 23.4667C22.2333 22.7855 22.7855 22.2333 23.4667 22.2333H55.5333C56.2145 22.2333 56.7667 22.7855 56.7667 23.4667V27.1667H22.2333V23.4667ZM56.7667 55.5333C56.7667 56.2145 56.2145 56.7667 55.5333 56.7667H23.4667C22.7855 56.7667 22.2333 56.2145 22.2333 55.5333V28.4H56.7667V55.5333Z" fill="black"/>
<path d="M24.7 25.3167C25.0406 25.3167 25.3167 25.0406 25.3167 24.7C25.3167 24.3594 25.0406 24.0833 24.7 24.0833C24.3594 24.0833 24.0833 24.3594 24.0833 24.7C24.0833 25.0406 24.3594 25.3167 24.7 25.3167Z" fill="black"/>
<path d="M27.1667 25.3167C27.5072 25.3167 27.7833 25.0406 27.7833 24.7C27.7833 24.3594 27.5072 24.0833 27.1667 24.0833C26.8261 24.0833 26.55 24.3594 26.55 24.7C26.55 25.0406 26.8261 25.3167 27.1667 25.3167Z" fill="black"/>
<path d="M29.6333 25.3167C29.9739 25.3167 30.25 25.0406 30.25 24.7C30.25 24.3594 29.9739 24.0833 29.6333 24.0833C29.2928 24.0833 29.0167 24.3594 29.0167 24.7C29.0167 25.0406 29.2928 25.3167 29.6333 25.3167Z" fill="black"/>
<path d="M54.3 24.0833H51.8333C51.4928 24.0833 51.2167 24.3594 51.2167 24.7C51.2167 25.0406 51.4928 25.3167 51.8333 25.3167H54.3C54.6406 25.3167 54.9167 25.0406 54.9167 24.7C54.9167 24.3594 54.6406 24.0833 54.3 24.0833Z" fill="black"/>
<path d="M37.0333 42.8429C37.0333 43.1835 37.3094 43.4596 37.65 43.4596C37.9906 43.4596 38.2667 43.1835 38.2667 42.8429C38.2692 42.4114 38.4599 42.0024 38.789 41.7231C39.1438 41.4243 39.6114 41.2955 40.0692 41.3703C40.5709 41.4557 40.9991 41.7811 41.2156 42.2417C41.4435 42.7179 41.3872 43.2815 41.0694 43.7032C40.425 44.4333 38.5997 46.1649 37.8455 46.8766C37.3296 47.3635 37.0361 48.0407 37.0333 48.75C37.0333 49.0906 37.3094 49.3667 37.65 49.3667H41.9667C42.3072 49.3667 42.5833 49.0906 42.5833 48.75C42.5833 48.4094 42.3072 48.1333 41.9667 48.1333H38.4196C38.4899 47.9992 38.582 47.8777 38.6922 47.7738C39.6431 46.8759 41.3371 45.2603 41.992 44.5221C42.6386 43.7378 42.7737 42.6504 42.3385 41.7317C41.9514 40.8923 41.1722 40.3003 40.2597 40.1524C39.446 40.0208 38.6154 40.2525 37.9873 40.7864C37.3834 41.2991 37.0347 42.0508 37.0333 42.8429Z" fill="black"/>
<path d="M47.7115 40.1481C47.4597 40.0643 47.1825 40.151 47.0233 40.3633L43.3233 45.2967C43.1832 45.4835 43.1606 45.7335 43.2651 45.9424C43.3696 46.1514 43.5831 46.2833 43.8167 46.2833H46.9V48.75C46.9 49.0906 47.1761 49.3667 47.5167 49.3667C47.8572 49.3667 48.1333 49.0906 48.1333 48.75V46.2833H49.3667C49.7072 46.2833 49.9833 46.0072 49.9833 45.6667C49.9833 45.3261 49.7072 45.05 49.3667 45.05H48.1333V40.7333C48.1334 40.4678 47.9635 40.232 47.7115 40.1481ZM46.9 45.05H45.05L46.9 42.5833V45.05Z" fill="black"/>
<path d="M43.2 35.8C48.3086 35.8 52.45 39.9414 52.45 45.05C52.45 50.1586 48.3086 54.3 43.2 54.3C38.0914 54.3 33.95 50.1586 33.95 45.05V43.7248L35.3184 45.4354C35.5312 45.7014 35.9194 45.7445 36.1854 45.5316C36.4514 45.3188 36.4945 44.9306 36.2816 44.6646L33.815 41.5812C33.6936 41.442 33.518 41.3621 33.3333 41.3621C33.1487 41.3621 32.973 41.442 32.8517 41.5812L30.3851 44.6646C30.2474 44.8366 30.2119 45.0691 30.2921 45.2744C30.3722 45.4797 30.5558 45.6266 30.7737 45.6598C30.9916 45.693 31.2106 45.6075 31.3483 45.4354L32.7167 43.7248V45.05C32.7167 50.8398 37.4102 55.5333 43.2 55.5333C48.9898 55.5333 53.6833 50.8398 53.6833 45.05C53.6833 39.2602 48.9898 34.5667 43.2 34.5667C42.8594 34.5667 42.5833 34.8428 42.5833 35.1833C42.5833 35.5239 42.8594 35.8 43.2 35.8Z" fill="black"/>
<path d="M27.1667 39.5H27.7833V40.7333C27.7833 41.1944 28.0406 41.617 28.4502 41.8288C28.8597 42.0406 29.3533 42.0062 29.7295 41.7397L32.9115 39.5H37.0333C38.0551 39.5 38.8833 38.6717 38.8833 37.65V31.4833C38.8833 30.4616 38.0551 29.6333 37.0333 29.6333H27.1667C26.1449 29.6333 25.3167 30.4616 25.3167 31.4833V37.65C25.3167 38.6717 26.1449 39.5 27.1667 39.5ZM26.55 31.4833C26.55 31.1428 26.8261 30.8667 27.1667 30.8667H37.0333C37.3739 30.8667 37.65 31.1428 37.65 31.4833V37.65C37.65 37.9906 37.3739 38.2667 37.0333 38.2667H32.7167C32.5897 38.2665 32.4658 38.3057 32.3621 38.3789L29.0167 40.7333V38.8833C29.0167 38.5428 28.7406 38.2667 28.4 38.2667H27.1667C26.8261 38.2667 26.55 37.9906 26.55 37.65V31.4833Z" fill="black"/>
<path d="M29.6333 35.1833C29.9739 35.1833 30.25 34.9072 30.25 34.5667C30.25 34.2261 29.9739 33.95 29.6333 33.95C29.2928 33.95 29.0167 34.2261 29.0167 34.5667C29.0167 34.9072 29.2928 35.1833 29.6333 35.1833Z" fill="black"/>
<path d="M32.1 35.1833C32.4406 35.1833 32.7167 34.9072 32.7167 34.5667C32.7167 34.2261 32.4406 33.95 32.1 33.95C31.7594 33.95 31.4833 34.2261 31.4833 34.5667C31.4833 34.9072 31.7594 35.1833 32.1 35.1833Z" fill="black"/>
<path d="M34.5667 35.1833C34.9072 35.1833 35.1833 34.9072 35.1833 34.5667C35.1833 34.2261 34.9072 33.95 34.5667 33.95C34.2261 33.95 33.95 34.2261 33.95 34.5667C33.95 34.9072 34.2261 35.1833 34.5667 35.1833Z" fill="black"/>
</g>
<defs>
<clipPath id="clip0_13_52">
<rect width="37" height="37" fill="white" transform="translate(21 21)"/>
</clipPath>
</defs>
</svg>
