<svg width="165" height="160" viewBox="0 0 165 160" fill="none" xmlns="http://www.w3.org/2000/svg">
<ellipse cx="82.5" cy="80" rx="82.5" ry="80" fill="url(#paint0_radial_12_22)"/>
<path d="M118.073 89.8779H86.6458C85.9207 89.8779 85.3329 90.4657 85.3329 91.1908C85.3329 91.9158 85.9207 92.5036 86.6458 92.5036H118.073C118.798 92.5036 119.386 91.9158 119.386 91.1908C119.386 90.4657 118.798 89.8779 118.073 89.8779Z" fill="white"/>
<path d="M118.073 96.6971H86.6457C85.9207 96.6971 85.3329 97.2849 85.3329 98.01C85.3329 98.735 85.9207 99.3228 86.6457 99.3228H118.073C118.798 99.3228 119.386 98.735 119.386 98.01C119.386 97.2849 118.798 96.6971 118.073 96.6971Z" fill="white"/>
<path d="M118.073 110.335H93.821C93.0959 110.335 92.5081 110.923 92.5081 111.648C92.5081 112.373 93.0959 112.961 93.821 112.961H118.073C118.798 112.961 119.386 112.373 119.386 111.648C119.386 110.923 118.798 110.335 118.073 110.335Z" fill="white"/>
<path d="M50.6478 92.5691C51.5684 94.8884 53.1528 96.8741 55.1647 98.2934C55.9747 98.8653 56.8561 99.3472 57.7916 99.7184C59.2447 100.296 60.8272 100.615 62.4847 100.615C64.1422 100.615 65.7247 100.296 67.1778 99.7184C68.1114 99.3472 68.9928 98.8672 69.8028 98.2953C71.8166 96.8759 73.4007 94.8884 74.3216 92.5691C77.003 92.0366 78.9922 89.6853 78.9922 86.8653C78.9922 86.3816 78.9303 85.9072 78.8122 85.4534V75.3359C78.8122 68.1753 73.0878 62.3253 65.9759 62.1228C65.8484 62.1191 65.7209 62.1172 65.5934 62.1172H59.3741C52.0859 62.1172 46.1572 68.0478 46.1572 75.3359V85.4459C46.0372 85.9034 45.9753 86.3797 45.9753 86.8653C45.9753 89.6853 47.9649 92.0366 50.6478 92.5691ZM75.2143 87.8853V84.4222C75.7034 84.8328 76.0674 85.3841 76.2455 86.0047C76.2474 86.0103 76.2493 86.0159 76.2509 86.0234C76.3259 86.2934 76.3672 86.5766 76.3672 86.8653C76.3672 87.8722 75.8797 88.7872 75.1259 89.3759C75.1841 88.8866 75.2143 88.3897 75.2143 87.8853ZM52.3803 82.4216V80.3328H61.3409C62.4903 80.3328 63.5009 79.9409 64.3484 79.1703L67.2172 76.5434C67.2678 76.4984 67.2997 76.4928 67.3691 76.5228C67.4274 76.5491 67.4478 76.5809 67.4478 76.6428V78.0528C67.4478 79.3091 68.4717 80.3328 69.7278 80.3328H72.5872V87.8853C72.5872 88.9241 72.4297 89.9253 72.1374 90.8684C72.1353 90.8741 72.1334 90.8797 72.1317 90.8872C72.1149 90.9434 72.0961 90.9997 72.0774 91.0559C71.3424 93.2741 69.8593 95.1547 67.9261 96.3941C67.9241 96.3941 67.9222 96.3959 67.9222 96.3959C67.9203 96.3959 67.9184 96.3978 67.9184 96.3978C67.8359 96.4372 67.7572 96.4859 67.6859 96.5441C67.6841 96.5459 67.6803 96.5459 67.6803 96.5459C66.1616 97.4628 64.3841 97.9878 62.4847 97.9878C60.5834 97.9878 58.8022 97.4609 57.2816 96.5422C57.2778 96.5403 57.2759 96.5384 57.2722 96.5366C57.2028 96.4803 57.1278 96.4334 57.0472 96.3978C57.0472 96.3978 57.0472 96.3959 57.0453 96.3959C57.0453 96.3959 57.0434 96.3941 57.0414 96.3941C55.1101 95.1547 53.6251 93.2741 52.8901 91.0559C52.8714 90.9997 52.8526 90.9434 52.8357 90.8872C52.8339 90.8797 52.832 90.8741 52.8301 90.8684C52.5376 89.9253 52.3803 88.9241 52.3803 87.8853V82.4216ZM48.7149 86.0291C48.7167 86.0272 48.7167 86.0253 48.7167 86.0234C48.7224 86.0047 48.728 85.9878 48.7336 85.9709C48.9136 85.3634 49.2755 84.8234 49.7555 84.4203V87.8853C49.7555 88.3897 49.7855 88.8884 49.8436 89.3778C49.0899 88.7891 48.6005 87.8741 48.6005 86.8653C48.6003 86.5784 48.6397 86.2972 48.7149 86.0291Z" fill="white"/>
<path d="M118.073 103.516H93.821C93.0959 103.516 92.5081 104.104 92.5081 104.829C92.5081 105.554 93.0959 106.142 93.821 106.142H118.073C118.798 106.142 119.386 105.554 119.386 104.829C119.386 104.104 118.798 103.516 118.073 103.516Z" fill="white"/>
<path d="M87.9059 40.1253H80.7041C79.9784 40.1253 79.3916 40.7122 79.3916 41.4378V44.3497H76.4778C75.7543 44.3497 75.1653 44.9384 75.1653 45.6622V52.8641C75.1653 53.5897 75.7543 54.1766 76.4778 54.1766H79.3916V57.0903C79.3916 57.8159 79.9784 58.4028 80.7041 58.4028H87.9059C88.6297 58.4028 89.2184 57.8159 89.2184 57.0903V54.1766H92.1303C92.8559 54.1766 93.4447 53.5897 93.4447 52.8641V45.6622C93.4447 44.9384 92.8559 44.3497 92.1303 44.3497H89.2184V41.4378C89.2184 40.7122 88.6297 40.1253 87.9059 40.1253Z" fill="white"/>
<path d="M78.7897 105.377H78.2067V113.515C80.5617 114.105 82.3092 116.239 82.3092 118.776C82.3092 121.761 79.8792 124.191 76.8922 124.191C73.9036 124.191 71.4717 121.761 71.4717 118.776C71.4717 116.237 73.223 114.102 75.5797 113.515V105.377H68.9703L63.7972 109.973V126.688H87.5009V114.088C87.5009 109.285 83.5934 105.377 78.7897 105.377Z" fill="white"/>
<path d="M51.2103 105.377V107.631C54.5797 108.252 57.1428 111.21 57.1428 114.758V122.502C57.1428 123.225 56.5541 123.814 55.8303 123.814H52.8697C52.1442 123.814 51.5553 123.225 51.5553 122.502C51.5553 121.776 52.1442 121.189 52.8697 121.189H54.5159V114.758C54.5159 112.21 52.4441 110.138 49.8978 110.138C47.3534 110.138 45.2853 112.21 45.2853 114.758V121.189H46.9314C47.657 121.189 48.2459 121.776 48.2459 122.502C48.2459 123.225 47.657 123.814 46.9314 123.814H43.9728C43.2472 123.814 42.6582 123.225 42.6582 122.502V114.758C42.6582 111.21 45.2176 108.252 48.5851 107.631V105.377H46.1776C41.3739 105.377 37.4664 109.285 37.4664 114.088V126.688H61.1701V109.971L55.997 105.377H51.2103Z" fill="white"/>
<path d="M67.1778 102.507C65.6647 102.994 64.0897 103.24 62.4847 103.24C60.8797 103.24 59.3047 102.994 57.7916 102.507V103.457L62.4847 107.627L67.1778 103.457V102.507Z" fill="white"/>
<path d="M128.149 55.5397L106.303 33.6959C106.058 33.4484 105.724 33.3116 105.375 33.3116H64.6634C63.9378 33.3116 63.3509 33.8984 63.3509 34.6241V59.4922H65.5934C65.7209 59.4922 65.8484 59.4941 65.9759 59.4978V35.9366H104.063V56.4678C104.063 57.1934 104.65 57.7803 105.375 57.7803H125.907V117.782H90.128V120.407H127.221C127.945 120.407 128.533 119.82 128.533 119.095V56.4678C128.533 56.1191 128.395 55.7853 128.149 55.5397Z" fill="white"/>
<path d="M118.073 69.4205H86.6458C85.9207 69.4205 85.3329 70.0083 85.3329 70.7334C85.3329 71.4584 85.9207 72.0463 86.6458 72.0463H118.073C118.798 72.0463 119.386 71.4584 119.386 70.7334C119.386 70.0083 118.798 69.4205 118.073 69.4205Z" fill="white"/>
<path d="M74.0967 118.776C74.0967 120.313 75.3509 121.566 76.8922 121.566C78.4316 121.566 79.6822 120.313 79.6822 118.776C79.6822 117.235 78.4316 115.98 76.8922 115.98C75.3509 115.98 74.0967 117.235 74.0967 118.776Z" fill="white"/>
<path d="M118.073 76.2397H86.6458C85.9207 76.2397 85.3329 76.8275 85.3329 77.5526C85.3329 78.2776 85.9207 78.8654 86.6458 78.8654H118.073C118.798 78.8654 119.386 78.2776 119.386 77.5526C119.386 76.8275 118.798 76.2397 118.073 76.2397Z" fill="white"/>
<path d="M118.073 83.0587H86.6458C85.9207 83.0587 85.3329 83.6465 85.3329 84.3716C85.3329 85.0966 85.9207 85.6845 86.6458 85.6845H118.073C118.798 85.6845 119.386 85.0966 119.386 84.3716C119.386 83.6465 118.798 83.0587 118.073 83.0587Z" fill="white"/>
<path d="M118.073 62.6015H86.6458C85.9207 62.6015 85.3329 63.1893 85.3329 63.9144C85.3329 64.6394 85.9207 65.2273 86.6458 65.2273H118.073C118.798 65.2273 119.386 64.6394 119.386 63.9144C119.386 63.1893 118.798 62.6015 118.073 62.6015Z" fill="white"/>
<defs>
<radialGradient id="paint0_radial_12_22" cx="0" cy="0" r="1" gradientUnits="userSpaceOnUse" gradientTransform="translate(83 65) rotate(91.8087) scale(95.0474 98.0176)">
<stop stop-color="#6A80A9"/>
<stop offset="1" stop-color="#39465B"/>
</radialGradient>
</defs>
</svg>
