<svg width="79" height="79" viewBox="0 0 79 79" fill="none" xmlns="http://www.w3.org/2000/svg">
<circle cx="39.5" cy="39.5" r="39.5" fill="white"/>
<g clip-path="url(#clip0_13_25)">
<path d="M53.25 40.7917V42.2917H51.75V40.7917H53.25Z" fill="#314455"/>
<path d="M56.25 40.7917H54.75V42.2917H56.25V40.7917Z" fill="#314455"/>
<path d="M57.75 40.7917H59.25V42.2917H57.75V40.7917Z" fill="#314455"/>
<path d="M62.25 42.2917V40.7917H60.75V42.2917H62.25Z" fill="#314455"/>
<path d="M53.25 43.7917V45.2917H51.75V43.7917H53.25Z" fill="#314455"/>
<path d="M56.25 43.7917H54.75V45.2917H56.25V43.7917Z" fill="#314455"/>
<path d="M57.75 43.7917H59.25V45.2917H57.75V43.7917Z" fill="#314455"/>
<path d="M62.25 45.2917V43.7917H60.75V45.2917H62.25Z" fill="#314455"/>
<path fill-rule="evenodd" clip-rule="evenodd" d="M53.25 33.2917C53.25 32.8775 52.9142 32.5417 52.5 32.5417C52.0858 32.5417 51.75 32.8775 51.75 33.2917V34.0417H50.25C49.0074 34.0417 48 35.0491 48 36.2917V46.7917C48 46.8694 48.0039 46.9462 48.0116 47.0218C48.1268 48.1564 49.085 49.0417 50.25 49.0417H63.75C64.9927 49.0417 66 48.0344 66 46.7917V36.2917C66 35.0491 64.9927 34.0417 63.75 34.0417H63V33.2917C63 32.8775 62.6642 32.5417 62.25 32.5417C61.8358 32.5417 61.5 32.8775 61.5 33.2917V34.0417H53.25V33.2917ZM64.5 37.0417V36.2917C64.5 35.8775 64.1642 35.5417 63.75 35.5417H50.25C49.8358 35.5417 49.5 35.8775 49.5 36.2917V37.0417H64.5ZM49.5 38.5417V46.7917C49.5 47.206 49.8358 47.5417 50.25 47.5417H63.75C64.1626 47.5417 64.4974 47.2086 64.5 46.7966V46.7917V38.5417H49.5Z" fill="#314455"/>
</g>
<path fill-rule="evenodd" clip-rule="evenodd" d="M16.6168 24.9739C20.9908 24.4636 24.8174 22.5516 27.7775 20.4757C27.9214 20.3748 28.0725 20.327 28.2484 20.327H37.7507C37.9265 20.327 38.0777 20.3747 38.2217 20.4757C41.1818 22.5517 45.0084 24.4636 49.3824 24.9739C49.7979 25.0223 50.1076 25.3701 50.1076 25.7885V39.9925C50.1076 49.5393 40.5137 57.5771 33.2228 59.6405C33.0702 59.6837 32.9288 59.6837 32.7762 59.6405C25.4854 57.5771 15.8916 49.5394 15.8916 39.9925V25.7886C15.8916 25.3701 16.2012 25.0223 16.6168 24.9739Z" fill="#314455"/>
<path fill-rule="evenodd" clip-rule="evenodd" d="M32.9996 57.5324C36.5909 56.4141 40.2107 53.9201 42.7693 51.2745C45.6927 48.2517 47.9997 44.303 47.9997 39.9928V26.8992C44.1685 26.2229 40.5635 24.5926 37.345 22.4027H28.6541C25.4356 24.5927 21.8306 26.2229 17.9995 26.8992V39.9928C17.9995 44.303 20.3065 48.2517 23.2298 51.2745C25.7886 53.9201 29.4083 56.4141 32.9996 57.5324Z" fill="#5B6E91"/>
<path d="M33.5466 48.6734C38.3293 48.3715 41.9617 44.2496 41.6598 39.4669C41.3578 34.6841 37.236 31.0517 32.4533 31.3536C27.6706 31.6555 24.0382 35.7775 24.3401 40.5602C24.642 45.3429 28.7639 48.9754 33.5466 48.6734Z" fill="white"/>
<path fill-rule="evenodd" clip-rule="evenodd" d="M31.5197 43.0366L37.5463 37.7002C37.7836 37.4902 38.1469 37.5122 38.3569 37.7492C38.5669 37.987 38.5449 38.3499 38.3078 38.5599L31.8411 44.2858C31.7361 44.3796 31.5999 44.4305 31.4605 44.4305C31.4467 44.4305 31.4327 44.4294 31.4196 44.4286C31.2652 44.4175 31.1216 44.3453 31.0216 44.2267L27.6337 40.2212C27.4288 39.9792 27.4592 39.6172 27.7013 39.4122C27.9429 39.2076 28.3058 39.2373 28.5108 39.4797L31.5197 43.0366ZM41.1026 40C41.1026 35.5321 37.468 31.8971 32.9997 31.8971C28.5313 31.8971 24.8968 35.5321 24.8968 40C24.8968 44.4679 28.5313 48.1029 32.9997 48.1029C37.4679 48.1029 41.1026 44.4679 41.1026 40ZM23.7479 40C23.7479 45.1014 27.8978 49.2512 32.9996 49.2512C38.1009 49.2512 42.2508 45.1014 42.2508 40C42.2508 34.8991 38.1009 30.7488 32.9996 30.7488C27.8979 30.7488 23.7479 34.8991 23.7479 40ZM47.4256 39.9783V27.3616C43.9335 26.673 40.4865 25.1946 37.1692 22.9624H28.83C25.5135 25.1946 22.0657 26.673 18.5737 27.3616V39.9784C18.5737 43.6165 20.3743 47.4811 23.643 50.8609C26.318 53.627 29.8028 55.8797 32.9997 56.9157C36.1965 55.8798 39.6821 53.627 42.3571 50.8609C45.6257 47.4811 47.4256 43.6164 47.4256 39.9783ZM37.3448 21.814H28.6544C28.5386 21.814 28.4263 21.8488 28.3314 21.9136C24.9538 24.2114 21.4447 25.6937 17.9001 26.3194C17.6252 26.3676 17.4249 26.6062 17.4249 26.8849V39.9784C17.4249 42.0945 17.9568 44.2403 19.004 46.3563C19.918 48.2044 21.2011 49.9881 22.8169 51.6591C25.6675 54.6062 29.4106 57.0017 32.829 58.0663C32.8849 58.0837 32.9421 58.0917 32.9996 58.0917C33.0571 58.0917 33.1143 58.0836 33.1702 58.0663C36.5894 57.0017 40.3316 54.6062 43.1819 51.6591C44.7981 49.9881 46.0811 48.2044 46.9959 46.3563C48.0431 44.2402 48.5739 42.0944 48.5739 39.9784V26.8849C48.5739 26.6063 48.374 26.3677 48.0999 26.3194C44.5545 25.6937 41.0454 24.2114 37.6678 21.9136C37.5729 21.8488 37.4602 21.814 37.3448 21.814ZM49.5339 39.978V25.5536C45.6094 25.1351 41.5769 23.5286 37.8288 20.8868H28.1703C24.4222 23.5286 20.3905 25.1351 16.466 25.5536V39.978C16.466 49.3644 26.1879 57.192 32.9996 59.0927C39.8114 57.192 49.5339 49.3644 49.5339 39.978ZM50.1531 24.4581C45.1821 24.0628 40.9879 21.7314 38.3453 19.845C38.248 19.7755 38.1315 19.7384 38.0119 19.7384H27.9874C27.8685 19.7384 27.7511 19.7755 27.6543 19.845C25.0113 21.7314 20.8178 24.0628 15.8462 24.4581C15.5474 24.4821 15.3178 24.731 15.3178 25.0305V39.978C15.3178 42.3565 15.8894 44.7528 17.0181 47.0997C18.0322 49.2088 19.4692 51.2315 21.2888 53.1136C24.5841 56.52 28.9066 59.1854 32.851 60.2426C32.8997 60.2549 32.9495 60.2615 32.9997 60.2615C33.0495 60.2615 33.0997 60.2549 33.1483 60.2426C37.0929 59.1853 41.4153 56.52 44.7105 53.1136C46.5297 51.2315 47.9672 49.2088 48.9808 47.0997C50.1095 44.7529 50.6823 42.3566 50.6823 39.978V25.0305C50.6822 24.731 50.4518 24.4821 50.1531 24.4581Z" fill="#4B5D7B"/>
<defs>
<clipPath id="clip0_13_25">
<rect width="18" height="16.5" fill="white" transform="translate(48 32.5417)"/>
</clipPath>
</defs>
</svg>
