<svg width="59" height="43" viewBox="0 0 59 43" fill="none" xmlns="http://www.w3.org/2000/svg">
<path d="M37.9336 42.1329H54.8007C57.1198 42.1329 59 40.2527 59 37.9336V21.0664C59 18.7473 57.1198 16.8671 54.8007 16.8671H42.1329V15.6773C42.1329 11.6637 45.3979 8.39858 49.4116 8.39858H54.8007C57.1198 8.39858 59 6.51842 59 4.19929C59 1.88016 57.1198 0 54.8007 0H49.4116C40.767 0 33.7343 7.03269 33.7343 15.6773V21.0664V37.9336C33.7343 40.2527 35.6144 42.1329 37.9336 42.1329Z" fill="white" fill-opacity="0.12"/>
<path d="M4.19919 42.1329H21.0663C23.3855 42.1329 25.2656 40.2527 25.2656 37.9336V21.0664C25.2656 18.7473 23.3855 16.8671 21.0663 16.8671H8.39848V15.6773C8.39848 11.6637 11.6636 8.39858 15.6772 8.39858H21.0663C23.3855 8.39858 25.2656 6.51842 25.2656 4.19929C25.2656 1.88016 23.3855 0 21.0663 0H15.6772C7.03259 0 -0.000102997 7.03269 -0.000102997 15.6773V21.0664V37.9336C-0.000102997 40.2527 1.88006 42.1329 4.19919 42.1329Z" fill="white" fill-opacity="0.12"/>
</svg>
