<svg width="52" height="52" viewBox="0 0 52 52" fill="none" xmlns="http://www.w3.org/2000/svg">
<g clip-path="url(#clip0_1542_1174)">
<path d="M46.6207 14.3448V23.8393L23.0952 45.7241H3.58621C1.6056 45.7241 0 44.1185 0 42.1379V14.3448H46.6207Z" fill="#ECF0F1"/>
<path d="M27.7931 17.931H24.2069C23.7117 17.931 23.3103 18.3324 23.3103 18.8276V21.5172C23.3103 22.0124 23.7117 22.4138 24.2069 22.4138H27.7931C28.2882 22.4138 28.6896 22.0124 28.6896 21.5172V18.8276C28.6896 18.3324 28.2882 17.931 27.7931 17.931Z" fill="#95A5A5"/>
<path d="M17.931 26.8965H14.3448C13.8496 26.8965 13.4482 27.2979 13.4482 27.7931V30.4828C13.4482 30.9779 13.8496 31.3793 14.3448 31.3793H17.931C18.4262 31.3793 18.8276 30.9779 18.8276 30.4828V27.7931C18.8276 27.2979 18.4262 26.8965 17.931 26.8965Z" fill="#95A5A5"/>
<path d="M17.931 35.8621H14.3448C13.8496 35.8621 13.4482 36.2635 13.4482 36.7586V39.4483C13.4482 39.9434 13.8496 40.3448 14.3448 40.3448H17.931C18.4262 40.3448 18.8276 39.9434 18.8276 39.4483V36.7586C18.8276 36.2635 18.4262 35.8621 17.931 35.8621Z" fill="#95A5A5"/>
<path d="M46.6207 6.27586V14.3448H0V6.27586C0 4.29525 1.6056 2.68965 3.58621 2.68965H43.0345C45.0151 2.68965 46.6207 4.29525 46.6207 6.27586Z" fill="#4B5D7B"/>
<path d="M36.7585 2.68965C38.3544 3.31379 39.4163 4.83873 39.4482 6.552C39.2985 8.91784 37.336 10.7601 34.9654 10.7601C32.5949 10.7601 30.6324 8.91784 30.4827 6.552C30.5145 4.83873 31.5765 3.31379 33.1723 2.68965H36.7585Z" fill="#D4D8F3"/>
<path d="M13.4482 2.68965C15.0441 3.31379 16.106 4.83873 16.1379 6.552C16.0584 8.95006 14.0534 10.8316 11.6551 10.7586C9.25685 10.8316 7.25181 8.95006 7.17236 6.552C7.20423 4.83873 8.26616 3.31379 9.86202 2.68965H13.4482Z" fill="#D4D8F3"/>
<path d="M35.8621 52C44.7748 52 52 44.7748 52 35.8621C52 26.9493 44.7748 19.7241 35.8621 19.7241C26.9493 19.7241 19.7241 26.9493 19.7241 35.8621C19.7241 44.7748 26.9493 52 35.8621 52Z" fill="#4B5D7B"/>
<path d="M8.06894 17.931H4.48273C3.98758 17.931 3.58618 18.3324 3.58618 18.8276V21.5172C3.58618 22.0124 3.98758 22.4138 4.48273 22.4138H8.06894C8.56409 22.4138 8.96549 22.0124 8.96549 21.5172V18.8276C8.96549 18.3324 8.56409 17.931 8.06894 17.931Z" fill="#95A5A5"/>
<path d="M17.931 17.931H14.3448C13.8496 17.931 13.4482 18.3324 13.4482 18.8276V21.5172C13.4482 22.0124 13.8496 22.4138 14.3448 22.4138H17.931C18.4262 22.4138 18.8276 22.0124 18.8276 21.5172V18.8276C18.8276 18.3324 18.4262 17.931 17.931 17.931Z" fill="#95A5A5"/>
<path d="M8.06894 26.8965H4.48273C3.98758 26.8965 3.58618 27.2979 3.58618 27.7931V30.4828C3.58618 30.9779 3.98758 31.3793 4.48273 31.3793H8.06894C8.56409 31.3793 8.96549 30.9779 8.96549 30.4828V27.7931C8.96549 27.2979 8.56409 26.8965 8.06894 26.8965Z" fill="#95A5A5"/>
<path d="M8.06894 35.8621H4.48273C3.98758 35.8621 3.58618 36.2635 3.58618 36.7586V39.4483C3.58618 39.9434 3.98758 40.3448 4.48273 40.3448H8.06894C8.56409 40.3448 8.96549 39.9434 8.96549 39.4483V36.7586C8.96549 36.2635 8.56409 35.8621 8.06894 35.8621Z" fill="#95A5A5"/>
<path d="M27.5304 35.5994C27.8702 35.2476 27.8653 34.6884 27.5195 34.3426C27.1737 33.9967 26.6145 33.9919 26.2627 34.3317L26.1076 34.4868C26.7158 30.1512 30.1113 26.7368 34.4434 26.1044C38.7755 25.472 43.0054 27.7733 44.8276 31.7541C45.043 32.1888 45.5651 32.3734 46.0059 32.1705C46.4466 31.9676 46.646 31.4509 46.4557 31.0045C44.2654 26.2301 39.1519 23.5108 33.9688 24.3641C28.7856 25.2174 24.8138 29.4324 24.2696 34.6571L23.9442 34.3317C23.5924 33.9919 23.0332 33.9967 22.6874 34.3426C22.3416 34.6884 22.3367 35.2476 22.6765 35.5994L24.4696 37.3925C24.8197 37.7425 25.3872 37.7425 25.7373 37.3925L27.5304 35.5994Z" fill="white"/>
<path d="M49.0475 36.1248L47.2544 34.3317C46.9043 33.9817 46.3368 33.9817 45.9867 34.3317L44.1936 36.1248C43.8538 36.4765 43.8587 37.0357 44.2045 37.3816C44.5504 37.7274 45.1095 37.7322 45.4613 37.3925L45.6164 37.2374C45.0082 41.5729 41.6127 44.9874 37.2806 45.6198C32.9486 46.2521 28.7187 43.9508 26.8964 39.9701C26.6811 39.5353 26.1589 39.3507 25.7181 39.5536C25.2774 39.7565 25.078 40.2732 25.2683 40.7196C27.4586 45.4941 32.5721 48.2134 37.7552 47.36C42.9384 46.5067 46.9102 42.2917 47.4544 37.067L47.7798 37.3925C48.1316 37.7322 48.6908 37.7274 49.0366 37.3816C49.3824 37.0357 49.3873 36.4765 49.0475 36.1248Z" fill="white"/>
<path d="M35.862 41.2414C36.3571 41.2414 36.7585 40.84 36.7585 40.3448V34.4401L37.0212 34.7028C37.373 35.0426 37.9322 35.0377 38.278 34.6919C38.6239 34.3461 38.6287 33.7869 38.289 33.4351L36.4959 31.642C36.1457 31.292 35.5782 31.292 35.2281 31.642L33.435 33.4351C33.0953 33.7869 33.1001 34.3461 33.4459 34.6919C33.7918 35.0377 34.351 35.0426 34.7027 34.7028L34.9654 34.4401V40.3448C34.9654 40.84 35.3668 41.2414 35.862 41.2414Z" fill="white"/>
<path d="M36.7586 1.7931C36.7586 0.8028 35.9558 0 34.9655 0C33.9752 0 33.1724 0.8028 33.1724 1.7931V5.37931C33.1724 6.36961 33.9752 7.17241 34.9655 7.17241C35.9558 7.17241 36.7586 6.36961 36.7586 5.37931V1.7931Z" fill="#95A5A5"/>
<path d="M13.4483 1.7931C13.4483 0.8028 12.6455 0 11.6552 0C10.6649 0 9.86206 0.8028 9.86206 1.7931V5.37931C9.86206 6.36961 10.6649 7.17241 11.6552 7.17241C12.6455 7.17241 13.4483 6.36961 13.4483 5.37931V1.7931Z" fill="#95A5A5"/>
</g>
<defs>
<clipPath id="clip0_1542_1174">
<rect width="52" height="52" fill="white"/>
</clipPath>
</defs>
</svg>
