<svg width="37" height="36" viewBox="0 0 37 36" fill="none" xmlns="http://www.w3.org/2000/svg">
<g opacity="0.5" clip-path="url(#clip0_1226_4143)">
<path d="M16.1958 21.3722L22.2136 17.9999L16.1958 14.6277V21.3722Z" fill="white"/>
<path d="M18.5 0C8.28429 0 0 8.06039 0 18C0 27.9396 8.28429 36 18.5 36C28.7157 36 37 27.9396 37 18C37 8.06039 28.7157 0 18.5 0ZM30.0597 18.0184C30.0597 18.0184 30.0597 21.6689 29.5837 23.4292C29.317 24.3927 28.5362 25.1524 27.5459 25.4117C25.7367 25.875 18.5 25.875 18.5 25.875C18.5 25.875 11.2822 25.875 9.45409 25.3932C8.46383 25.134 7.68302 24.374 7.41626 23.4105C6.94004 21.6689 6.94004 18 6.94004 18C6.94004 18 6.94004 14.3498 7.41626 12.5895C7.68274 11.626 8.48274 10.8476 9.45409 10.5883C11.2633 10.125 18.5 10.125 18.5 10.125C18.5 10.125 25.7367 10.125 27.5459 10.6068C28.5362 10.866 29.317 11.626 29.5837 12.5895C30.0789 14.3498 30.0597 18.0184 30.0597 18.0184Z" fill="white"/>
</g>
<defs>
<clipPath id="clip0_1226_4143">
<rect width="37" height="36" fill="white"/>
</clipPath>
</defs>
</svg>
